<?xml version="1.0" encoding="utf-8"?>
<!-- Generator: Adobe Illustrator 19.2.1, SVG Export Plug-In . SVG Version: 6.00 Build 0)  -->
<svg version="1.1" id="Capa_1" xmlns="http://www.w3.org/2000/svg" xmlns:xlink="http://www.w3.org/1999/xlink" x="0px" y="0px"
	 viewBox="0 0 53 53" style="enable-background:new 0 0 53 53;" xml:space="preserve">
<style type="text/css">
	.st0{fill:#FFFFFF;}
</style>
<g>
	<path class="st0" d="M34.9,8v3.5c-2.7-3.2-7-4.7-11.2-4.7C13,6.8,5.6,15.7,5.6,26c0,10.3,7.5,19.3,18.2,19.3
		c4.2,0,8.6-1.6,10.9-5.2h0.1v4h12.8V8L34.9,8L34.9,8z M27.2,34.2l0.1,0.6l0.5,2.6l0,0l0.3,1.9L22.5,33l-0.2-0.2
		c-1.1-0.7-2-1.8-2.6-3l0,0l0,0c-0.5-1.1-0.8-2.4-0.8-3.8c0-4.4,3-8.1,8.2-8.1c5.2,0,8.2,3.7,8.2,8.1C35.3,30.6,32.3,34.1,27.2,34.2
		z"/>
</g>
</svg>