<svg xmlns="http://www.w3.org/2000/svg" xmlns:xlink="http://www.w3.org/1999/xlink" version="1.1" x="0px" y="0px" viewBox="0 0 100 125" style="enable-background:new 0 0 100 100;" xml:space="preserve"><g><path d="M89.177,17.401L73.142,70.659L16.958,53.743L32.661,1.584C18.484,6.851,6.835,18.403,2.135,34   c-7.956,26.431,7.02,54.322,33.456,62.278c26.433,7.965,54.318-7.019,62.278-33.45C102.765,46.567,98.958,29.78,89.177,17.401z"/><rect x="39.105" y="8.166" transform="matrix(0.9575 0.2883 -0.2883 0.9575 6.0241 -16.8338)" width="42.099" height="7.732"/><polygon points="76.591,30.451 36.281,18.319 34.055,25.715 74.362,37.854  "/><polygon points="29.22,41.767 69.528,53.905 71.755,46.501 31.447,34.371  "/></g><text x="0" y="115" fill="#000000" font-size="5px" font-weight="bold" font-family="'Helvetica Neue', Helvetica, Arial-Unicode, Arial, Sans-serif">Created by Erin Standley</text><text x="0" y="120" fill="#000000" font-size="5px" font-weight="bold" font-family="'Helvetica Neue', Helvetica, Arial-Unicode, Arial, Sans-serif">from the Noun Project</text></svg>