<?xml version="1.0" encoding="utf-8"?>
<!-- Generator: Adobe Illustrator 15.0.0, SVG Export Plug-In . SVG Version: 6.00 Build 0)  -->
<!DOCTYPE svg PUBLIC "-//W3C//DTD SVG 1.1//EN" "http://www.w3.org/Graphics/SVG/1.1/DTD/svg11.dtd">
<svg version="1.1" id="Capa_1" xmlns="http://www.w3.org/2000/svg" xmlns:xlink="http://www.w3.org/1999/xlink" x="0px" y="0px"
	 width="182.938px" height="182.342px" viewBox="0 0 182.938 182.342" enable-background="new 0 0 182.938 182.342"
	 xml:space="preserve">
<g>
	<text transform="matrix(1 0 0 1 41.0479 93.3711)" font-family="Lato" font-size="20">Resultados</text>
	<path fill="#8DC267" d="M54.726,164.077C28.222,150.625,10,123.114,10,91.411c0-44.048,35.153-80.016,78.875-81.387L88.809,0
		C39.601,1.405,0,41.87,0,91.411c0,35.752,20.626,66.773,50.601,81.803L54.726,164.077z"/>
	<path fill="#F5AF50" d="M150.957,146.342c-14.881,15.979-36.081,26-59.586,26c-11.916,0-23.23-2.593-33.442-7.211l-4.079,9.155
		c11.457,5.174,24.158,8.056,37.521,8.056c26.363,0,50.154-11.219,66.859-29.128L150.957,146.342z"/>
	<path fill="#E72A64" d="M160.836,151.001c13.766-16.013,22.102-36.825,22.102-59.549C182.938,41.025,141.914,0,91.486,0l0,0v10l0,0
		c44.912,0,81.451,36.539,81.451,81.452c0,20.121-7.35,38.548-19.486,52.775L160.836,151.001z"/>
</g>
</svg>
