<?xml version="1.0" encoding="utf-8"?>
<!-- Generator: Adobe Illustrator 15.0.0, SVG Export Plug-In . SVG Version: 6.00 Build 0)  -->
<!DOCTYPE svg PUBLIC "-//W3C//DTD SVG 1.1//EN" "http://www.w3.org/Graphics/SVG/1.1/DTD/svg11.dtd">
<svg version="1.1" id="Capa_1" xmlns="http://www.w3.org/2000/svg" xmlns:xlink="http://www.w3.org/1999/xlink" x="0px" y="0px"
	 width="361.668px" height="50.26px" viewBox="0 0 361.668 50.26" enable-background="new 0 0 361.668 50.26" xml:space="preserve">
<g>
	<g>
		<path fill="#FFFFFF" d="M60.408,26.643c-1.661-0.891-3.975-1.484-5.816-1.484c-1.246,0-3.384,0.535-3.384,2.076
			c0,2.078,3.384,2.377,4.864,2.67c5.047,1.01,8.843,3.385,8.843,9.021c0,8.012-7.3,11.334-14.362,11.334
			c-4.328,0-8.6-1.246-12.282-3.5l3.916-7.539c2.197,1.545,5.875,3.086,8.546,3.086c1.369,0,3.385-0.65,3.385-2.312
			c0-2.373-3.385-2.494-6.766-3.383s-6.765-2.551-6.765-8.012c0-7.477,6.765-10.799,13.411-10.799c3.444,0,6.883,0.533,10.027,1.959
			L60.408,26.643z"/>
		<path fill="#FFFFFF" d="M117.251,22.605h0.12c2.554-3.381,5.695-4.805,9.611-4.805c4.393,0,8.194,1.779,10.386,5.816
			c2.074-3.799,6.168-5.816,10.324-5.816c7.716,0,10.387,5.043,10.387,12.045v19.406h-10.806V34.711
			c0-3.141,0.125-8.307-4.445-8.307c-4.988,0-5.161,4.688-5.161,8.307v14.541H126.86V34.711c0-3.381,0-8.543-4.803-8.543
			c-4.807,0-4.807,5.162-4.807,8.543v14.541h-10.798V18.811h10.798V22.605z"/>
		<path fill="#FFFFFF" d="M211.661,49.252h-10.798V0h10.798V49.252z"/>
		<path fill="#FFFFFF" d="M247.675,35.842h-22.724c0,4.387,2.317,6.766,6.766,6.766c2.317,0,3.979-0.775,5.164-2.795h10.382
			c-0.833,3.562-2.967,6.176-5.758,7.896c-2.787,1.719-6.228,2.551-9.729,2.551c-10.087,0-17.625-5.697-17.625-16.199
			c0-10.148,6.944-16.26,16.851-16.26c10.564,0,16.673,6.527,16.673,16.91V35.842z M237.65,29.611
			c-0.535-2.91-3.206-4.809-6.112-4.809c-3.142,0-5.753,1.662-6.409,4.809H237.65z"/>
		<path fill="#FFFFFF" d="M299.125,23.795h0.124c2.073-3.74,5.631-5.402,9.845-5.402h2.078v10.385
			c-1.48-0.832-2.906-1.008-4.568-1.008c-6,0-7.479,3.975-7.479,9.199v12.283h-10.802V18.811h10.802V23.795z"/>
		<path fill="#FFFFFF" d="M324.281,7.119c0,3.32-2.726,6.055-6.047,6.055c-3.326,0-6.055-2.734-6.055-6.055
			c0-3.322,2.729-6.057,6.055-6.057C321.556,1.062,324.281,3.797,324.281,7.119z M323.629,49.252H312.83V18.811h10.799V49.252z"/>
	</g>
	<path fill="#FFFFFF" d="M24.687,18.811v2.965c-2.256-2.67-5.94-3.975-9.438-3.975C6.23,17.801,0,25.277,0,33.998
		C0,42.721,6.351,50.26,15.367,50.26c3.564,0,7.301-1.365,9.202-4.391h0.117v3.383h10.801V18.811H24.687z M18.211,40.879l0.086,0.5
		l0.41,2.236l-0.027-0.023l0.281,1.635l-4.746-5.303l-0.157-0.129c-0.969-0.621-1.705-1.48-2.198-2.502l-0.007-0.008l0.005,0.002
		c-0.459-0.955-0.703-2.045-0.703-3.227c0-3.74,2.55-6.885,6.943-6.885c4.393,0,6.943,3.145,6.943,6.885
		C25.041,37.883,22.528,40.826,18.211,40.879z"/>
	<path fill="#FFFFFF" d="M182.643,17.801c-3.498,0-7.117,1.305-9.434,3.975V0h-10.803v49.252h10.803v-3.383h0.121
		c1.954,3.025,5.635,4.391,9.199,4.391c9.072,0,15.363-7.475,15.363-16.262C197.893,25.277,191.667,17.801,182.643,17.801z
		 M180.124,40.855l0.755,4.371l-4.129-4.609l-1.018-0.838c-1.858-1.203-2.879-3.283-2.879-5.719c0-3.74,2.549-6.885,6.942-6.885
		c4.392,0,6.942,3.145,6.942,6.885C186.738,37.82,184.305,40.709,180.124,40.855z"/>
	<path fill="#FFFFFF" d="M90.848,18.811v2.965c-2.256-2.67-5.933-3.975-9.436-3.975c-9.021,0-15.25,7.477-15.25,16.197
		c0,8.723,6.347,16.262,15.369,16.262c3.562,0,7.3-1.365,9.194-4.391h0.122v3.383h10.799V18.811H90.848z M88.517,39.648
		l-0.211,0.084l-4.919,5.494l0.752-4.354c-4.314-0.059-6.821-2.994-6.821-6.812c0-3.74,2.55-6.885,6.943-6.885
		c4.392,0,6.94,3.145,6.94,6.885C91.201,36.414,90.252,38.428,88.517,39.648z"/>
	<path fill="#FFFFFF" d="M272.719,18.811v2.965c-2.255-2.67-5.933-3.975-9.436-3.975c-9.016,0-15.251,7.477-15.251,16.197
		c0,8.723,6.352,16.262,15.372,16.262c3.558,0,7.298-1.365,9.199-4.391h0.115v3.383h10.802V18.811H272.719z M272.357,37.312
		l0.058-0.027l-0.109,0.121c-0.438,0.859-1.05,1.602-1.832,2.174l-0.182,0.076l-4.986,5.57l0.75-4.35
		c-4.341-0.035-6.867-2.984-6.867-6.816c0-3.74,2.552-6.885,6.941-6.885c4.394,0,6.944,3.145,6.944,6.885
		C273.074,35.252,272.824,36.354,272.357,37.312z"/>
	<path fill="#FFFFFF" d="M350.866,18.811v2.965c-2.251-2.67-5.932-3.975-9.435-3.975c-9.018,0-15.251,7.477-15.251,16.197
		c0,8.723,6.35,16.262,15.369,16.262c3.561,0,7.302-1.365,9.197-4.391h0.119v3.383h10.802V18.811H350.866z M348.615,39.592
		l-0.264,0.105l-4.95,5.529l0.751-4.354c-4.311-0.062-6.814-2.996-6.814-6.812c0-3.74,2.551-6.885,6.942-6.885
		c4.394,0,6.943,3.145,6.943,6.885C351.224,36.377,350.297,38.365,348.615,39.592z"/>
</g>
</svg>
