<?xml version="1.0" encoding="utf-8"?>
<!-- Generator: Adobe Illustrator 19.2.1, SVG Export Plug-In . SVG Version: 6.00 Build 0)  -->
<svg version="1.1" id="Capa_1" xmlns="http://www.w3.org/2000/svg" xmlns:xlink="http://www.w3.org/1999/xlink" x="0px" y="0px"
	 viewBox="0 0 226.2 422.7" style="enable-background:new 0 0 226.2 422.7;" xml:space="preserve">
<style type="text/css">
	.st0{fill:#E49B87;}
	.st1{fill:#CD9183;}
	.st2{fill:#1D1D1B;}
	.st3{fill:#43393D;}
	.st4{fill:#AE7B72;}
</style>
<g>
	<g>
		<path class="st0" d="M202.6,138c-11.4,0-20.6,9.2-20.6,20.6v62.5c-3.4-0.3-6.3-0.1-8.1,1v-55.7v-14.2V53.4
			c0-10.3-8.4-18.7-18.7-18.7c-10.3,0-18.7,8.4-18.7,18.7v100l-6,0.2V26.9c0-10.3-8.4-18.7-18.7-18.7c-10.3,0-18.7,8.4-18.7,18.7
			v127.9l-6.5,0.2V51.3c0-10.3-8.4-18.7-18.7-18.7c-10.3,0-18.7,8.4-18.7,18.7v104.8l-7.3,0.2V77.8c0-10.3-8.3-18.7-18.7-18.7
			C13,59.2,4.7,67.5,4.7,77.8v79.7c0,0-2.5,52.5-1.4,87.6c1.1,35.1,45.2,91.5,48.6,94c-1.4,3.1,1.8,167.9,1.8,167.9l100.8,0.6
			c0,0,5.4-167.9,5.9-176.4c17.7-8.9,58.8-51.8,62.5-88.3h0.4v-84.4C223.2,147.2,214,138,202.6,138z"/>
		<path class="st1" d="M90.4,156.3l-83.8,3.8c6.3,3.2,69.3,6.5,83.8,6.1c14.5-0.4,68.4-7.6,81.7-11.8
			C155.9,154.8,90.4,156.3,90.4,156.3z"/>
		<path class="st1" d="M113.1,292.5c0,0,7.8-45.9,58.9-71c-58.1,14.1-76.6,51.4-84.6,71C97.5,292.5,113.1,292.5,113.1,292.5z"/>
	</g>
	<rect x="42" y="354.2" class="st2" width="126.1" height="50.5"/>
	<rect x="42" y="350" class="st3" width="126.1" height="50.5"/>
	<rect x="51.6" y="404.7" class="st4" width="107.5" height="7.7"/>
</g>
</svg>
