<?xml version="1.0" encoding="utf-8"?>
<!-- Generator: Adobe Illustrator 16.0.0, SVG Export Plug-In . SVG Version: 6.00 Build 0)  -->
<!DOCTYPE svg PUBLIC "-//W3C//DTD SVG 1.1//EN" "http://www.w3.org/Graphics/SVG/1.1/DTD/svg11.dtd">
<svg version="1.1" id="Capa_1" xmlns="http://www.w3.org/2000/svg" xmlns:xlink="http://www.w3.org/1999/xlink" x="0px" y="0px"
	 width="226.18px" height="500px" viewBox="0 0 226.18 500" enable-background="new 0 0 226.18 500" xml:space="preserve">
<g>
	<g>
		<path fill="#E49B87" d="M202.595,130.309c-11.404,0-20.633,9.234-20.633,20.622v62.528c-3.403-0.333-6.265-0.108-8.139,0.976
			v-55.733v-14.166V45.721c0-10.3-8.358-18.659-18.67-18.659c-10.305,0-18.669,8.358-18.669,18.659v99.996l-6.04,0.181V19.189
			c0-10.289-8.357-18.664-18.668-18.664c-10.306,0-18.659,8.375-18.659,18.664v127.882l-6.463,0.214V43.615
			c0-10.3-8.361-18.658-18.664-18.658c-10.31,0-18.664,8.358-18.664,18.658v104.85l-7.308,0.237v-78.55
			c0-10.316-8.348-18.669-18.659-18.669c-10.316,0-18.675,8.353-18.675,18.669v79.724c0,0-2.523,52.5-1.394,87.586
			c1.124,35.081,45.189,91.502,48.56,94.037c-1.411,3.076,1.829,167.947,1.829,167.947L154.493,500c0,0,5.441-167.942,5.853-176.368
			c17.676-8.905,58.848-51.799,62.454-88.286h0.419v-84.415C223.219,139.543,213.984,130.309,202.595,130.309z"/>
		<path fill="#CD9183" d="M90.38,148.613l-83.799,3.787c6.326,3.155,69.277,6.53,83.799,6.105
			c14.526-0.423,68.384-7.607,81.682-11.794C155.854,147.127,90.38,148.613,90.38,148.613z"/>
		<path fill="#CD9183" d="M113.112,284.83c0,0,7.801-45.905,58.95-70.958c-58.103,14.105-76.632,51.375-84.628,70.958
			C97.53,284.83,113.112,284.83,113.112,284.83z"/>
	</g>
	<rect x="41.957" y="346.518" fill="#1D1D1B" width="126.111" height="50.518"/>
	<rect x="41.957" y="342.307" fill="#43393D" width="126.111" height="50.529"/>
	<rect x="51.646" y="397.035" fill="#AE7B72" width="107.453" height="7.726"/>
</g>
</svg>
