<?xml version="1.0" encoding="utf-8"?>
<!-- Generator: Adobe Illustrator 19.2.1, SVG Export Plug-In . SVG Version: 6.00 Build 0)  -->
<svg version="1.1" id="Capa_1" xmlns="http://www.w3.org/2000/svg" xmlns:xlink="http://www.w3.org/1999/xlink" x="0px" y="0px"
	 viewBox="0 0 312.8 297.8" style="enable-background:new 0 0 312.8 297.8;" xml:space="preserve">
<style type="text/css">
	.st0{fill:#E48994;}
	.st1{fill:#E8A793;}
	.st2{fill:#CA9082;}
	.st3{fill:#FFFFFF;}
	.st4{fill:#40454B;}
	.st5{fill:#E49C87;}
	.st6{fill:#CD9284;}
	.st7{fill:#5E6979;}
	.st8{fill:#555C67;}
	.st9{fill:#D39181;}
	.st10{fill:#BC877F;}
	.st11{fill:#A97D4F;}
	.st12{fill:#72573C;}
	.st13{fill:#EDEDED;}
	.st14{fill:#B2B2B2;}
	.st15{opacity:0.77;fill:#986D5D;enable-background:new    ;}
	.st16{fill:#BC877E;}
	.st17{fill:#AF7B71;}
	.st18{fill:#5B3C17;}
</style>
<g>
	<g>
		<path class="st0" d="M15.7,63.2c0,4.5-1.6,8.1-3.6,8.1c-2,0-3.6-3.6-3.6-8.1c0-4.5,1.6-8.1,3.6-8.1C14.1,55.1,15.7,58.7,15.7,63.2
			z"/>
		<path class="st0" d="M29.2,52.2c0,4.5-1.6,8.1-3.6,8.1S22,56.7,22,52.2c0-4.5,1.6-8.1,3.6-8.1S29.2,47.7,29.2,52.2z"/>
		<path class="st0" d="M43.7,44.1c0,4.5-1.6,8.1-3.6,8.1c-2,0-3.6-3.6-3.6-8.1c0-4.5,1.6-8.1,3.6-8.1C42.1,36,43.7,39.6,43.7,44.1z"
			/>
		<ellipse class="st0" cx="52.7" cy="54.6" rx="3.6" ry="8.1"/>
		
			<ellipse transform="matrix(0.8565 -0.5161 0.5161 0.8565 -42.5313 56.1157)" class="st0" cx="79.7" cy="104.6" rx="8.1" ry="3.6"/>
		<rect x="16.1" y="134.8" class="st1" width="31.1" height="14.2"/>
		<path class="st2" d="M47.2,135.3c0,1.1-0.9,2-2,2H18.2c-1.1,0-2-0.9-2-2v-2.9c0-1.1,0.9-2,2-2h27.1c1.1,0,2,0.9,2,2V135.3z"/>
		<g>
			<path class="st1" d="M46.6,87.8c0.1-2.3,2.3-34.7,2.3-34.7s0.3-4.1,4-3.6c3.6,0.5,3.8,1.8,4,4.4c0.3,2.6,1.2,50.3,1.2,50.3
				c3.1-1.4,10.8-7.1,18.2-7.1c7.5,0.1,8.7,2.9,8.6,5.7c-0.2,2.9-1,3.4-2.5,4.4c-1.5,0.9-18.2,10.6-21.2,14.1
				c-3,3.5-10.3,10.9-13.9,11.2c-3.5,0.3-31.1,0-31.1,0s-5-3.7-6.1-7.1c-1.2-3.4-0.8-4.8-0.9-7.5c-0.2-2.7-0.5-29.4-0.5-29.4
				S7.6,65.3,8,63.8s0.9-5.2,4.3-5.3c3.4-0.1,4.1,1.8,4.3,4.5c0.2,2.7,1.7,24.9,1.7,24.9l2.3-0.3c0,0,0.8-32.4,1.2-35.9
				c0.3-3.5,1.7-5.3,4-5.2c2.3,0.1,4.4-0.1,4.4,6.6c0,6.6,0.8,34.5,0.8,34.5l3.9,0.1c0,0,1-42.6,1.3-44.9c0.3-2.3,1.9-4.3,4.2-4.1
				c2.3,0.2,3.8,1,4,5.1c0.2,4.1,1.5,43.9,1.5,43.9L46.6,87.8z"/>
			<path class="st2" d="M26.4,87.7h25.2c-2.9,1.2-17.8,3.5-24.2,3.4c-6.4-0.1-15.7-3.4-15.7-3.4C14.8,87.8,26.4,87.7,26.4,87.7z"/>
			<path class="st2" d="M53.8,104.1c-3.3,0.8-11.5,2.1-18.7,13.6c-3.8-0.2-6.6,0-6.6,0c2.1-2.6,10.8-14.8,25.2-13.8"/>
		</g>
		<rect x="11.7" y="149" class="st3" width="39.9" height="148.1"/>
	</g>
	<g>
		<rect x="173.3" y="125.6" class="st4" width="43.4" height="4.5"/>
		<g>
			<path class="st3" d="M218.4,123.5c0,1.1-0.9,2-2,2h-42.6c-1.1,0-2-0.9-2-2v-8c0-1.1,0.9-2,2-2h42.6c1.1,0,2,0.9,2,2L218.4,123.5
				L218.4,123.5z"/>
			<g>
				<g>
					<g>
						<path class="st5" d="M224.3,39.6c-3.4,0-6.2,2.8-6.2,6.2v18.7c-1-0.1-1.9,0-2.4,0.3V48.1v-4.2V14.2c0-3.1-2.5-5.6-5.6-5.6
							s-5.6,2.5-5.6,5.6v29.9l-1.8,0.1V6.3c0-3.1-2.5-5.6-5.6-5.6s-5.6,2.5-5.6,5.6v38.3l-1.9,0.1v-31c0-3.1-2.5-5.6-5.6-5.6
							c-3.1,0-5.6,2.5-5.6,5.6V45l-2.2,0.1V21.6c0-3.1-2.5-5.6-5.6-5.6s-5.6,2.5-5.6,5.6v23.9c0,0-0.8,15.7-0.4,26.2
							s9.7,21.2,10.8,21.9c-0.4,0.9,0.1,20,0.1,20h39.8c0,0,0.3-13.6,0.5-16.1c5.3-2.7,13.6-15.5,14.7-26.4h0.1V45.7
							C230.5,42.3,227.7,39.6,224.3,39.6z"/>
						<path class="st6" d="M190.7,45l-25.1,1.1c1.9,0.9,20.7,2,25.1,1.8c4.4-0.1,20.5-2.3,24.5-3.5C210.3,44.6,190.7,45,190.7,45z"
							/>
						<path class="st6" d="M197.5,85.8c0,0,2.3-13.7,17.7-21.2c-17.4,4.2-22.9,15.4-25.3,21.2C192.9,85.8,197.5,85.8,197.5,85.8z"/>
					</g>
					<rect x="189.8" y="103" class="st6" width="3.3" height="10.6"/>
					<rect x="199.2" y="103" class="st6" width="3.6" height="10.6"/>
				</g>
				<circle class="st7" cx="213.9" cy="119.6" r="3.8"/>
				<rect x="173.3" y="127.8" class="st7" width="43.4" height="168.5"/>
				<rect x="189.8" y="127.8" class="st8" width="18.9" height="168.5"/>
			</g>
		</g>
		<g>
			<path class="st3" d="M218.4,123.5c0,1.1-0.9,2-2,2h-42.6c-1.1,0-2-0.9-2-2v-8c0-1.1,0.9-2,2-2h42.6c1.1,0,2,0.9,2,2L218.4,123.5
				L218.4,123.5z"/>
			<g>
				<g>
					<g>
						<path class="st5" d="M224.3,39.6c-3.4,0-6.2,2.8-6.2,6.2v18.7c-1-0.1-1.9,0-2.4,0.3V48.1v-4.2V14.2c0-3.1-2.5-5.6-5.6-5.6
							s-5.6,2.5-5.6,5.6v29.9l-1.8,0.1V6.3c0-3.1-2.5-5.6-5.6-5.6s-5.6,2.5-5.6,5.6v38.3l-1.9,0.1v-31c0-3.1-2.5-5.6-5.6-5.6
							c-3.1,0-5.6,2.5-5.6,5.6V45l-2.2,0.1V21.6c0-3.1-2.5-5.6-5.6-5.6s-5.6,2.5-5.6,5.6v23.9c0,0-0.8,15.7-0.4,26.2
							s9.7,21.2,10.8,21.9c-0.4,0.9,0.1,20,0.1,20h39.8c0,0,0.3-13.6,0.5-16.1c5.3-2.7,13.6-15.5,14.7-26.4h0.1V45.7
							C230.5,42.3,227.7,39.6,224.3,39.6z"/>
						<path class="st6" d="M190.7,45l-25.1,1.1c1.9,0.9,20.7,2,25.1,1.8c4.4-0.1,20.5-2.3,24.5-3.5C210.3,44.6,190.7,45,190.7,45z"
							/>
						<path class="st6" d="M197.5,85.8c0,0,2.3-13.7,17.7-21.2c-17.4,4.2-22.9,15.4-25.3,21.2C192.9,85.8,197.5,85.8,197.5,85.8z"/>
					</g>
					<rect x="189.8" y="103" class="st6" width="3.3" height="10.6"/>
					<rect x="199.2" y="103" class="st6" width="3.6" height="10.6"/>
				</g>
				<circle class="st7" cx="213.9" cy="119.6" r="3.8"/>
				<rect x="173.3" y="127.8" class="st7" width="43.4" height="169.3"/>
				<polygon class="st8" points="208.7,297 189.8,297.1 189.8,127.8 208.7,127.8 				"/>
			</g>
		</g>
	</g>
	<g>
		<g>
			<path class="st9" d="M81.9,175.3c-2.3,0-4.1,1.8-4.1,4.1v12.3c-0.7-0.1-1.2,0-1.6,0.2v-11v-2.8v-19.5c0-2-1.7-3.7-3.7-3.7
				c-2,0-3.7,1.6-3.7,3.7v19.7l-1.2,0v-25c0-2-1.7-3.7-3.7-3.7c-2,0-3.7,1.6-3.7,3.7v25.3l-1.3,0v-20.5c0-2-1.6-3.7-3.7-3.7
				c-2,0-3.7,1.7-3.7,3.7v20.7l-1.4,0v-15.5c0-2-1.7-3.7-3.7-3.7c-2,0-3.7,1.6-3.7,3.7v15.7c0,0-0.5,10.4-0.3,17.3
				c0.2,6.9,6.4,14,7.1,14.5c-0.3,0.6,0.1,13.2,0.1,13.2h26.2c0,0,0.2-9,0.3-10.6c3.5-1.8,9-10.2,9.7-17.4H86v-16.7
				C86,177.1,84.2,175.3,81.9,175.3z"/>
			<path class="st10" d="M59.8,178.9l-16.5,0.8c1.2,0.6,13.7,1.3,16.5,1.2c2.9-0.1,13.5-1.5,16.1-2.3
				C72.7,178.6,59.8,178.9,59.8,178.9z"/>
			<path class="st10" d="M64.3,205.8c0,0,1.5-9.1,11.6-14c-11.5,2.8-15.1,10.1-16.7,14C61.2,205.8,64.3,205.8,64.3,205.8z"/>
		</g>
		<rect x="44.4" y="225" class="st11" width="35.1" height="72.1"/>
		<rect x="57.9" y="225" class="st12" width="15.3" height="72.1"/>
		<path class="st3" d="M80.4,221.3c0-1.1-0.8-1.9-1.8-1.9H45.4c-1,0-1.8,0.9-1.8,1.9v3.1c0,1.1,0.8,1.9,1.8,1.9h33.3
			c1,0,1.8-0.9,1.8-1.9V221.3z"/>
		<circle class="st12" cx="49.7" cy="222.9" r="2.1"/>
	</g>
	<g>
		<g>
			<g>
				<circle class="st13" cx="120.4" cy="192.2" r="4.1"/>
				<circle class="st3" cx="120.4" cy="190" r="1.5"/>
				<path class="st14" d="M123.1,189.1c0.3,0.6,0.5,1.2,0.5,1.9c0,2.1-1.7,3.8-3.8,3.8c-1.5,0-2.9-0.9-3.4-2.3
					c0.1,2.2,1.9,3.9,4.1,3.9c2.3,0,4.1-1.9,4.1-4.2C124.5,191,124,189.9,123.1,189.1z"/>
			</g>
			<g>
				<path class="st5" d="M157.3,121.8c-2.6,0-4.8,2.1-4.8,4.8V141c-0.8-0.1-1.5,0-1.9,0.2v-12.9v-3.3v-22.9c0-2.4-1.9-4.3-4.3-4.3
					c-2.4,0-4.3,1.9-4.3,4.3v23.2l-1.4,0V96.1c0-2.4-1.9-4.3-4.3-4.3c-2.4,0-4.3,1.9-4.3,4.3v29.6l-1.5,0v-24c0-2.4-1.9-4.3-4.3-4.3
					c-2.4,0-4.3,1.9-4.3,4.3V126l-1.7,0.1v-18.2c0-2.4-1.9-4.3-4.3-4.3s-4.3,1.9-4.3,4.3v18.5c0,0-0.3,12.1-0.3,20.3
					c-0.1,14.3,8.2,20.4,9,21c-0.3,0.7,0.1,129.5,0.1,129.5h30.6c0,0-0.1-126.4,0-128.4c4.1-2.1,11.2-12.2,11.1-22.6h0.1v-19.5
					C162.1,123.9,159.9,121.8,157.3,121.8z"/>
				<path class="st6" d="M131.3,126l-19.4,0.9c1.5,0.7,16,1.5,19.4,1.4c3.4-0.1,15.8-1.8,18.9-2.7C146.5,125.7,131.3,126,131.3,126z
					"/>
				<path class="st6" d="M136.6,157.6c0,0,1.8-10.6,13.7-16.4c-13.5,3.3-17.7,11.9-19.6,16.4C133,157.6,136.6,157.6,136.6,157.6z"/>
			</g>
			<path class="st15" d="M146.5,197.4c-2.4,0-4.3,1.8-4.6,4.1c-0.8-1.1-2.1-1.9-3.6-1.9c-2.5,0-4.5,2-4.5,4.5c0,0.1,0,0.1,0,0.2
				c-0.8-1.1-2.1-1.8-3.5-1.8c-2.5,0-4.5,2-4.5,4.5c0,0.1,0,0.2,0,0.3c-0.8-1.2-2.2-2-3.7-2c-0.7,0-1.4,0.2-2,0.5v8
				c0.6,0.3,1.3,0.5,2,0.5c2.5,0,4.5-2,4.5-4.5c0-0.1,0-0.2,0-0.3c0.8,1.2,2.2,2,3.7,2c2.5,0,4.5-2,4.5-4.5c0-0.1,0-0.1,0-0.2
				c0.8,1.1,2.1,1.8,3.5,1.8c2.3,0,4.2-1.7,4.4-3.9c0.8,1.2,2.2,2,3.8,2c1.9,0,3.5-1.2,4.2-2.8v-3.6
				C150.1,198.6,148.4,197.4,146.5,197.4z"/>
			<g>
				<circle class="st13" cx="154.9" cy="188.4" r="4.5"/>
				<circle class="st3" cx="154.9" cy="185.9" r="1.7"/>
				<path class="st14" d="M157.9,185c0.3,0.6,0.5,1.3,0.5,2.1c0,2.4-1.9,4.3-4.2,4.3c-1.7,0-3.2-1-3.8-2.5c0.2,2.4,2.1,4.3,4.5,4.3
					c2.5,0,4.5-2.1,4.5-4.6C159.5,187.1,158.9,185.8,157.9,185z"/>
			</g>
			<g>
				<path class="st13" d="M157.5,194c0,2.5-2,4.5-4.5,4.5c-2.5,0-4.5-2-4.5-4.5c0-2.5,2-4.5,4.5-4.5
					C155.4,189.5,157.5,191.5,157.5,194z"/>
				<circle class="st3" cx="152.9" cy="191.6" r="1.7"/>
				<path class="st14" d="M155.9,190.6c0.3,0.6,0.5,1.3,0.5,2.1c0,2.4-1.9,4.3-4.2,4.3c-1.7,0-3.2-1-3.8-2.5
					c0.2,2.4,2.1,4.3,4.5,4.3c2.5,0,4.5-2.1,4.5-4.6C157.5,192.7,156.9,191.5,155.9,190.6z"/>
			</g>
			<g>
				<circle class="st13" cx="146.2" cy="197.9" r="4.5"/>
				<circle class="st3" cx="146.2" cy="195.4" r="1.7"/>
				<path class="st14" d="M149.2,194.5c0.3,0.6,0.6,1.3,0.6,2.1c0,2.4-1.9,4.3-4.2,4.3c-1.7,0-3.2-1-3.8-2.5
					c0.2,2.4,2.1,4.3,4.5,4.3c2.5,0,4.5-2.1,4.5-4.6C150.8,196.6,150.1,195.4,149.2,194.5z"/>
			</g>
			<g>
				<circle class="st13" cx="138.3" cy="200.3" r="4.5"/>
				<circle class="st3" cx="138.2" cy="197.8" r="1.7"/>
				<path class="st14" d="M141.2,196.9c0.3,0.6,0.5,1.3,0.5,2.1c0,2.4-1.9,4.3-4.2,4.3c-1.7,0-3.2-1-3.8-2.5
					c0.2,2.4,2.1,4.3,4.5,4.3c2.5,0,4.5-2.1,4.5-4.6C142.8,199,142.2,197.7,141.2,196.9z"/>
			</g>
			<g>
				<circle class="st13" cx="130.4" cy="203.3" r="4.5"/>
				<circle class="st3" cx="130.3" cy="200.8" r="1.7"/>
				<path class="st14" d="M133.4,199.9c0.3,0.6,0.5,1.3,0.5,2.1c0,2.4-1.9,4.3-4.2,4.3c-1.7,0-3.2-1-3.8-2.5
					c0.2,2.4,2.1,4.3,4.5,4.3c2.5,0,4.5-2.1,4.5-4.6C134.9,201.9,134.3,200.7,133.4,199.9z"/>
			</g>
			<g>
				<path class="st13" d="M120.2,195.6c0,2.2-1.8,4.1-4.1,4.1s-4.1-1.8-4.1-4.1c0-2.2,1.8-4.1,4.1-4.1S120.2,193.4,120.2,195.6z"/>
				<path class="st3" d="M117.5,193.4c0,0.8-0.7,1.5-1.5,1.5s-1.5-0.7-1.5-1.5c0-0.8,0.7-1.5,1.5-1.5S117.5,192.6,117.5,193.4z"/>
				<path class="st14" d="M118.8,192.6c0.3,0.6,0.5,1.2,0.5,1.9c0,2.1-1.7,3.8-3.8,3.8c-1.5,0-2.9-0.9-3.4-2.3
					c0.2,2.2,1.9,3.9,4.1,3.9c2.3,0,4.1-1.9,4.1-4.2C120.2,194.4,119.6,193.3,118.8,192.6z"/>
			</g>
			<g>
				<circle class="st13" cx="114.5" cy="202.2" r="4.5"/>
				<circle class="st3" cx="114.5" cy="199.7" r="1.7"/>
				<path class="st14" d="M117.5,198.8c0.3,0.6,0.5,1.3,0.5,2.1c0,2.4-1.9,4.3-4.2,4.3c-1.7,0-3.2-1-3.8-2.5
					c0.2,2.4,2.1,4.3,4.5,4.3c2.5,0,4.5-2.1,4.5-4.6C119.1,200.9,118.5,199.6,117.5,198.8z"/>
			</g>
			<g>
				<path class="st13" d="M126.4,205.7c0,2.5-2,4.5-4.5,4.5c-2.5,0-4.5-2-4.5-4.5c0-2.5,2-4.5,4.5-4.5
					C124.4,201.2,126.4,203.2,126.4,205.7z"/>
				<circle class="st3" cx="121.8" cy="203.2" r="1.7"/>
				<path class="st14" d="M124.8,202.3c0.3,0.6,0.5,1.3,0.5,2.1c0,2.4-1.9,4.3-4.2,4.3c-1.7,0-3.2-1-3.8-2.5
					c0.2,2.4,2.1,4.3,4.5,4.3c2.5,0,4.5-2.1,4.5-4.6C126.4,204.4,125.8,203.2,124.8,202.3z"/>
			</g>
		</g>
		<rect x="128.9" y="173.1" class="st6" width="2.7" height="12.8"/>
		<rect x="136.6" y="173.1" class="st6" width="2.7" height="12.8"/>
	</g>
	<g>
		<g>
			<path class="st9" d="M298.7,103.5c-3.4,0-6.2,2.8-6.2,6.2v18.7c-1-0.1-1.9,0-2.4,0.3V112v-4.2V78.1c0-3.1-2.5-5.6-5.6-5.6
				c-3.1,0-5.6,2.5-5.6,5.6v29.9l-1.8,0.1V70.2c0-3.1-2.5-5.6-5.6-5.6c-3.1,0-5.6,2.5-5.6,5.6v38.3l-1.9,0.1v-31
				c0-3.1-2.5-5.6-5.6-5.6c-3.1,0-5.6,2.5-5.6,5.6v31.4l-2.2,0.1V85.4c0-3.1-2.5-5.6-5.6-5.6c-3.1,0-5.6,2.5-5.6,5.6v23.9
				c0,0-0.8,15.7-0.4,26.2c0.3,10.5,13.5,27.4,14.5,28.2c-0.4,0.9-1.2,133.4-1.2,133.4h31.7c0,0,1.9-133.2,2-135.8
				c5.3-2.7,17.6-15.5,18.7-26.4h0.1v-25.3C304.9,106.2,302.1,103.5,298.7,103.5z"/>
			<path class="st16" d="M265.1,108.9l-25.1,1.1c1.9,0.9,20.7,2,25.1,1.8c4.4-0.1,20.5-2.3,24.5-3.5
				C284.7,108.5,265.1,108.9,265.1,108.9z"/>
			<path class="st16" d="M271.9,149.7c0,0,2.3-13.7,17.7-21.2c-17.4,4.2-22.9,15.4-25.3,21.2C267.3,149.7,271.9,149.7,271.9,149.7z"
				/>
		</g>
		<g>
			<path class="st17" d="M285.8,177.2c-2,1.5-7.9,3.1-15.9,3.1c-9,0-15.1-2-16.3-3.6v2.5c3.3,2,9.8,3.1,16.3,3.1
				c6.1,0,12.4-1,15.9-2.8L285.8,177.2z"/>
		</g>
		<g>
			<path class="st17" d="M285.8,174.5c-2,1.5-7.7,3-15.7,3c-9,0-15.1-2-16.3-3.6v2.5c3.3,2,9.8,3.1,16.3,3.1
				c6.1,0,12.2-0.9,15.7-2.7L285.8,174.5z"/>
		</g>
		<g>
			<path class="st18" d="M285.8,170.7v2.4c0.3,0.3,0.5,0.5,0.5,0.8c0,0.5-0.9,1.6-4.3,2.8c-3.2,1-7.5,1.7-12.1,1.8c-0.7,0-1.3,0-2,0
				c-9.7,0-14.6-2.3-14.7-3.6c0-0.1,0.1-0.3,0.2-0.5h0v-2.6c-1.5,0.9-2.2,2-2.2,3.2c0.1,3.8,8.5,5.5,16.7,5.5c0.7,0,1.3,0,2,0
				c4.8-0.2,9.3-0.8,12.6-1.9c3.8-1.2,5.8-2.9,5.7-4.8C288.3,172.6,287.4,171.5,285.8,170.7z"/>
			<path class="st18" d="M285.9,167.9l0,2.6c0.5,0.4,0.4,0.4,0.4,0.7c0,0.5-0.9,1.6-4.3,2.8c-3.2,1-7.5,1.7-12.1,1.8
				c-0.7,0-1.3,0-2,0c-9.7,0-14.6-2.3-14.7-3.6c0-0.2-0.1-0.2,0.2-0.4l0-2.8c-1.6,1-2.2,2.1-2.2,3.3c0.1,3.8,8.5,5.5,16.7,5.5
				c0.7,0,1.3,0,2,0c4.8-0.2,9.3-0.8,12.6-1.9c3.8-1.2,5.8-2.9,5.7-4.7C288.3,169.8,287.7,168.7,285.9,167.9z"/>
		</g>
	</g>
</g>
</svg>
