<?xml version="1.0" encoding="utf-8"?>
<!-- Generator: Adobe Illustrator 15.0.0, SVG Export Plug-In . SVG Version: 6.00 Build 0)  -->
<!DOCTYPE svg PUBLIC "-//W3C//DTD SVG 1.1//EN" "http://www.w3.org/Graphics/SVG/1.1/DTD/svg11.dtd">
<svg version="1.1" id="Capa_1" xmlns="http://www.w3.org/2000/svg" xmlns:xlink="http://www.w3.org/1999/xlink" x="0px" y="0px"
	 width="312.756px" height="296.379px" viewBox="0 0 312.756 296.379" enable-background="new 0 0 312.756 296.379"
	 xml:space="preserve">
<g>
	<g>
		<path fill="#DD6277" d="M243.851,88.932c0,4.334-1.56,7.844-3.479,7.844c-1.922,0-3.482-3.51-3.482-7.844s1.561-7.846,3.482-7.846
			C242.291,81.086,243.851,84.598,243.851,88.932z"/>
		<path fill="#DD6277" d="M256.944,78.277c0,4.332-1.56,7.844-3.479,7.844c-1.924,0-3.477-3.512-3.477-7.844
			s1.553-7.844,3.477-7.844C255.385,70.434,256.944,73.945,256.944,78.277z"/>
		<ellipse fill="#DD6277" cx="267.486" cy="70.434" rx="3.481" ry="7.844"/>
		<ellipse fill="#DD6277" cx="279.671" cy="80.654" rx="3.481" ry="7.846"/>
		<path fill="#DD6277" d="M307.597,131.963c-3.714,2.234-7.523,2.713-8.518,1.066c-0.992-1.646,1.214-4.795,4.924-7.027
			c3.71-2.236,7.523-2.715,8.516-1.068C313.511,126.578,311.304,129.729,307.597,131.963z"/>
		<rect x="244.275" y="158.291" fill="#E8A793" width="30.116" height="13.734"/>
		<path fill="#CA9082" d="M274.392,158.74c0,1.078-0.875,1.949-1.954,1.949h-26.21c-1.08,0-1.952-0.871-1.952-1.949v-2.77
			c0-1.078,0.872-1.955,1.952-1.955h26.21c1.079,0,1.954,0.877,1.954,1.955V158.74z"/>
		<g>
			<path fill="#E8A793" d="M273.741,112.75c0.079-2.197,2.196-33.617,2.196-33.617s0.325-3.986,3.828-3.5
				c3.499,0.488,3.662,1.709,3.905,4.234c0.244,2.523,1.139,48.676,1.139,48.676c3.014-1.387,10.419-6.922,17.66-6.84
				c7.249,0.082,8.468,2.766,8.307,5.535c-0.164,2.77-0.981,3.338-2.444,4.232c-1.466,0.895-17.581,10.256-20.509,13.676
				c-2.934,3.42-10.016,10.582-13.432,10.824c-3.42,0.246-30.116,0-30.116,0s-4.804-3.578-5.939-6.916
				c-1.146-3.34-0.736-4.643-0.897-7.246c-0.162-2.604-0.489-28.488-0.489-28.488s-0.896-22.385-0.567-23.848
				c0.322-1.467,0.895-5.047,4.148-5.131c3.259-0.078,3.988,1.791,4.152,4.398c0.162,2.604,1.625,24.09,1.625,24.09l2.199-0.24
				c0,0,0.818-31.34,1.141-34.758c0.324-3.42,1.628-5.129,3.826-5.045c2.199,0.08,4.229-0.084,4.229,6.346
				c0,6.432,0.815,33.457,0.815,33.457l3.745,0.078c0,0,0.979-41.266,1.302-43.463c0.323-2.199,1.873-4.15,4.068-3.988
				c2.2,0.162,3.666,0.975,3.824,4.965c0.168,3.988,1.465,42.486,1.465,42.486L273.741,112.75z"/>
			<path fill="#CA9082" d="M254.226,112.629h24.421c-2.811,1.16-17.216,3.418-23.444,3.295c-6.227-0.123-15.199-3.295-15.199-3.295
				C242.932,112.75,254.226,112.629,254.226,112.629z"/>
			<path fill="#CA9082" d="M280.782,128.5c-3.176,0.732-11.174,2.076-18.073,13.125c-3.721-0.182-6.347,0-6.347,0
				c2.076-2.562,10.438-14.348,24.42-13.371"/>
		</g>
		<rect x="240.003" y="172.025" fill="#F4E3EA" width="38.644" height="125.785"/>
	</g>
	<g>
		<rect x="166.551" y="125.051" fill="#777776" width="43.373" height="4.473"/>
		<g>
			<path fill="#FFFFFF" d="M211.688,123.035c0,1.113-0.902,2.016-2.017,2.016h-42.616c-1.115,0-2.018-0.902-2.018-2.016v-7.953
				c0-1.113,0.902-2.016,2.018-2.016h42.616c1.114,0,2.017,0.902,2.017,2.016V123.035z"/>
			<g>
				<g>
					<g>
						<path fill="#E49C87" d="M217.615,39.062c-3.412,0-6.179,2.766-6.179,6.178v18.719c-1.02-0.096-1.875-0.027-2.438,0.295V47.568
							v-4.242v-29.59c0-3.086-2.503-5.588-5.59-5.588s-5.589,2.502-5.589,5.588v29.941l-1.809,0.057V5.793
							c0-3.086-2.502-5.588-5.589-5.588s-5.589,2.502-5.589,5.588v38.293l-1.935,0.061V13.107c0-3.088-2.502-5.59-5.589-5.59
							c-3.088,0-5.59,2.502-5.59,5.59V44.5l-2.187,0.07V21.049c0-3.086-2.501-5.586-5.589-5.586c-3.087,0-5.588,2.5-5.588,5.586
							v23.873c0,0-0.758,15.719-0.42,26.227c0.337,10.504,9.749,21.18,10.758,21.938c-0.422,0.924,0.084,20.006,0.084,20.006h39.759
							c0,0,0.336-13.617,0.461-16.141c5.293-2.666,13.585-15.508,14.669-26.436h0.124V45.24
							C223.791,41.828,221.024,39.062,217.615,39.062z"/>
						<path fill="#CD9284" d="M184.014,44.543l-25.091,1.137c1.891,0.943,20.74,1.953,25.091,1.826
							c4.35-0.125,20.477-2.277,24.46-3.529C203.62,44.102,184.014,44.543,184.014,44.543z"/>
						<path fill="#CD9284" d="M190.82,85.33c0,0,2.336-13.742,17.653-21.244c-17.399,4.225-22.947,15.383-25.343,21.244
							C186.157,85.33,190.82,85.33,190.82,85.33z"/>
					</g>
					<rect x="183.131" y="102.541" fill="#CD9284" width="3.341" height="10.551"/>
					<rect x="192.462" y="102.541" fill="#CD9284" width="3.593" height="10.551"/>
				</g>
				<circle fill="#5E6979" cx="207.15" cy="119.059" r="3.782"/>
				<rect x="166.551" y="127.289" fill="#5E6979" width="43.373" height="168.537"/>
				<rect x="183.131" y="127.287" fill="#555C67" width="18.849" height="168.539"/>
			</g>
		</g>
		<g>
			<path fill="#FFFFFF" d="M211.688,123.035c0,1.113-0.902,2.016-2.017,2.016h-42.616c-1.115,0-2.018-0.902-2.018-2.016v-7.953
				c0-1.113,0.902-2.016,2.018-2.016h42.616c1.114,0,2.017,0.902,2.017,2.016V123.035z"/>
			<g>
				<g>
					<g>
						<path fill="#E49C87" d="M217.615,39.062c-3.412,0-6.179,2.766-6.179,6.178v18.719c-1.02-0.096-1.875-0.027-2.438,0.295V47.568
							v-4.242v-29.59c0-3.086-2.503-5.588-5.59-5.588s-5.589,2.502-5.589,5.588v29.941l-1.809,0.057V5.793
							c0-3.086-2.502-5.588-5.589-5.588s-5.589,2.502-5.589,5.588v38.293l-1.935,0.061V13.107c0-3.088-2.502-5.59-5.589-5.59
							c-3.088,0-5.59,2.502-5.59,5.59V44.5l-2.187,0.07V21.049c0-3.086-2.501-5.586-5.589-5.586c-3.087,0-5.588,2.5-5.588,5.586
							v23.873c0,0-0.758,15.719-0.42,26.227c0.337,10.504,9.749,21.18,10.758,21.938c-0.422,0.924,0.084,20.006,0.084,20.006h39.759
							c0,0,0.336-13.617,0.461-16.141c5.293-2.666,13.585-15.508,14.669-26.436h0.124V45.24
							C223.791,41.828,221.024,39.062,217.615,39.062z"/>
						<path fill="#CD9284" d="M184.014,44.543l-25.091,1.137c1.891,0.943,20.74,1.953,25.091,1.826
							c4.35-0.125,20.477-2.277,24.46-3.529C203.62,44.102,184.014,44.543,184.014,44.543z"/>
						<path fill="#CD9284" d="M190.82,85.33c0,0,2.336-13.742,17.653-21.244c-17.399,4.225-22.947,15.383-25.343,21.244
							C186.157,85.33,190.82,85.33,190.82,85.33z"/>
					</g>
					<rect x="183.131" y="102.541" fill="#CD9284" width="3.341" height="10.551"/>
					<rect x="192.462" y="102.541" fill="#CD9284" width="3.593" height="10.551"/>
				</g>
				<circle fill="#CCC7C6" cx="207.15" cy="119.059" r="3.782"/>
				<rect x="166.551" y="127.289" fill="#CCC7C5" width="43.373" height="170.521"/>
				<rect x="183.131" y="127.287" fill="#A9A8A8" width="18.849" height="170.523"/>
			</g>
		</g>
	</g>
	<g>
		<path fill="#E49C87" d="M151.054,121.281c-2.637,0-4.776,2.139-4.776,4.775v14.48c-0.788-0.076-1.452-0.025-1.888,0.227v-12.904
			v-3.283v-22.887c0-2.385-1.934-4.322-4.322-4.322s-4.322,1.938-4.322,4.322v23.16l-1.399,0.045V95.547
			c0-2.387-1.934-4.32-4.321-4.32s-4.322,1.934-4.322,4.32v29.619l-1.498,0.047v-24.01c0-2.385-1.935-4.32-4.322-4.32
			s-4.321,1.936-4.321,4.32v24.281l-1.692,0.055v-18.191c0-2.387-1.938-4.322-4.322-4.322c-2.387,0-4.323,1.936-4.323,4.322v18.465
			c0,0-0.285,12.15-0.324,20.281c-0.067,14.32,8.238,20.418,9.019,21.002c-0.324,0.715-0.026,130.715-0.026,130.715h30.833
			c0,0-0.179-127.629-0.082-129.58c4.094-2.062,11.19-12.229,11.096-22.623h0.095v-19.551
			C155.832,123.42,153.692,121.281,151.054,121.281z"/>
		<path fill="#CD9284" d="M125.067,125.518l-19.404,0.877c1.461,0.732,16.04,1.514,19.404,1.416c3.365-0.1,15.835-1.762,18.916-2.73
			C140.229,125.178,125.067,125.518,125.067,125.518z"/>
		<path fill="#CD9284" d="M130.331,157.066c0,0,1.809-10.631,13.652-16.434c-13.455,3.268-17.746,11.896-19.598,16.434
			C126.726,157.066,130.331,157.066,130.331,157.066z"/>
	</g>
	<g>
		<path fill="#986D5D" d="M144.618,203.486c-1.556,0.863-3.23,1.627-5.067,2.215c1.827-0.797,3.517-1.727,5.067-2.754v-1.232
			c-0.479,0.33-0.951,0.668-1.461,0.98c0.507-0.367,0.99-0.746,1.461-1.131v-1.275c-2.897,2.492-6.604,4.691-10.872,6.271
			c-0.36,0.135-0.728,0.232-1.09,0.355c-0.271,0.062-0.531,0.135-0.804,0.191c-0.485,0.104-0.966,0.15-1.451,0.232
			c-0.314,0.018-0.625,0.049-0.945,0.059c-6.028,0.186-11.514-0.975-15.677-3.027v1.061c2.307,1.086,4.948,1.93,7.854,2.434
			c-2.951-0.207-5.599-0.816-7.854-1.73v1.082c2.292,0.881,4.942,1.459,7.864,1.66c-0.067,0-0.138,0.008-0.205,0.008
			c-2.912,0-5.498-0.43-7.659-1.223v1.084c2.206,0.748,4.789,1.148,7.659,1.148c3.309,0,6.825-0.576,10.297-1.623
			c4.791-0.414,9.215-1.699,12.883-3.641V203.486z"/>
		<path fill="#986D5D" d="M125.416,180.756c0.269-0.062,0.53-0.135,0.802-0.191c0.486-0.105,0.974-0.15,1.461-0.234
			c0.312-0.018,0.62-0.047,0.935-0.059c0.416-0.012,0.832-0.02,1.241-0.02c5.69,0,10.842,1.209,14.764,3.217v-1.076
			c-2.38-1.162-5.134-2.057-8.172-2.584c3.096,0.217,5.849,0.881,8.172,1.875v-1.096c-2.366-0.955-5.128-1.584-8.189-1.793
			c0.067,0,0.138-0.008,0.205-0.008c3.064,0,5.759,0.484,7.984,1.363v-1.092c-2.279-0.828-4.967-1.281-7.984-1.281
			c-3.308,0-6.822,0.576-10.295,1.621c-4.652,0.4-8.954,1.621-12.56,3.467v1.143c1.47-0.783,3.032-1.49,4.741-2.037
			c-1.695,0.736-3.281,1.588-4.741,2.529v1.236c0.376-0.254,0.738-0.518,1.135-0.762c-0.395,0.287-0.763,0.582-1.135,0.879v1.258
			c2.849-2.379,6.434-4.479,10.546-5.998C124.686,180.977,125.052,180.879,125.416,180.756z"/>
	</g>
	<g>
		<path fill="none" stroke="#CDCDCC" stroke-width="0.5" stroke-miterlimit="10" d="M152.227,186.9
			c1.614,7.6-7.463,15.969-20.27,18.684c-12.808,2.719-24.498-1.242-26.111-8.846c-1.614-7.602,7.46-15.971,20.269-18.688
			C138.923,175.336,150.613,179.295,152.227,186.9z"/>
		
			<ellipse transform="matrix(0.9378 -0.3471 0.3471 0.9378 -58.5562 56.7119)" fill="none" stroke="#BDBCBC" stroke-width="0.5" stroke-miterlimit="10" cx="129.036" cy="191.818" rx="23.707" ry="14.072"/>
		<path fill="none" stroke="#ACACAC" stroke-width="0.5" stroke-miterlimit="10" d="M152.731,191.084
			c0.242,7.766-10.172,14.393-23.26,14.801c-13.084,0.408-23.89-5.561-24.131-13.332c-0.241-7.766,10.17-14.395,23.257-14.803
			C141.685,177.344,152.49,183.314,152.731,191.084z"/>
	</g>
	<rect x="113.813" y="175.293" fill="#E59C88" width="30.785" height="23.367"/>
	<rect x="122.668" y="172.602" fill="#CD9284" width="2.687" height="12.791"/>
	<rect x="130.4" y="172.602" fill="#CD9284" width="2.688" height="12.791"/>
	<g>
		<g>
			<path fill="#D39181" d="M59.443,78.145c-3.396,0-6.147,2.752-6.147,6.145v18.619c-1.012-0.098-1.865-0.029-2.425,0.293V86.605
				v-4.221v-29.43c0-3.07-2.488-5.559-5.559-5.559c-3.067,0-5.558,2.488-5.558,5.559v29.779l-1.799,0.057V45.053
				c0-3.066-2.49-5.557-5.562-5.557c-3.067,0-5.557,2.49-5.557,5.557v38.086l-1.926,0.062V52.328c0-3.068-2.488-5.559-5.558-5.559
				s-5.56,2.49-5.56,5.559v31.225l-2.177,0.068V60.23c0-3.07-2.486-5.561-5.555-5.561c-3.072,0-5.562,2.49-5.562,5.561v23.742
				c0,0-0.75,15.635-0.415,26.084c0.334,10.451,13.459,27.254,14.462,28.006c-0.42,0.922,0.755,132.678,0.755,132.678h29.594
				c0,0,1.84-132.51,1.965-135.016c5.263-2.656,17.524-15.43,18.601-26.295h0.123V84.289C65.585,80.896,62.836,78.145,59.443,78.145
				z"/>
			<path fill="#BC877E" d="M26.021,83.596L1.066,84.725c1.882,0.943,20.631,1.941,24.955,1.82
				c4.328-0.127,20.368-2.268,24.328-3.514C45.521,83.158,26.021,83.596,26.021,83.596z"/>
			<path fill="#BC877E" d="M32.792,124.164c0,0,2.325-13.67,17.558-21.131c-17.304,4.201-22.821,15.301-25.205,21.131
				C28.155,124.164,32.792,124.164,32.792,124.164z"/>
		</g>
		<rect x="11.705" y="145.66" fill="#FFFFFF" width="38.645" height="152.15"/>
	</g>
	<g>
		<g>
			<path fill="#E59C88" d="M79.843,179.543c-2.715,0-4.913,2.199-4.913,4.91v14.885c-0.81-0.078-1.491-0.025-1.938,0.232v-13.268
				v-3.373v-23.525c0-2.451-1.99-4.441-4.445-4.441c-2.453,0-4.442,1.99-4.442,4.441v23.807l-1.438,0.043V153.09
				c0-2.451-1.989-4.443-4.444-4.443c-2.453,0-4.442,1.992-4.442,4.443v30.443l-1.539,0.051v-24.68c0-2.453-1.989-4.443-4.442-4.443
				c-2.455,0-4.444,1.99-4.444,4.443v24.961l-1.74,0.057v-18.701c0-2.455-1.986-4.443-4.441-4.443s-4.444,1.988-4.444,4.443v18.98
				c0,0-0.602,12.498-0.333,20.852c0.268,8.352,10.759,21.783,11.561,22.387c-0.335,0.732,0.436,70.24,0.436,70.24l24,0.131
				c0,0,1.295-70.238,1.394-72.244c4.207-2.121,14.01-12.332,14.869-21.018h0.1v-20.096
				C84.753,181.742,82.554,179.543,79.843,179.543z"/>
			<path fill="#CD9284" d="M53.127,183.9l-19.948,0.902c1.505,0.75,16.491,1.555,19.948,1.453c3.46-0.102,16.28-1.811,19.446-2.809
				C68.714,183.547,53.127,183.9,53.127,183.9z"/>
			<path fill="#CD9284" d="M58.539,216.328c0,0,1.858-10.928,14.034-16.893c-13.832,3.357-18.243,12.23-20.147,16.893
				C54.831,216.328,58.539,216.328,58.539,216.328z"/>
		</g>
		<rect x="41.601" y="231.014" width="30.021" height="12.027"/>
		<rect x="41.601" y="230.012" fill="#433A3D" width="30.021" height="12.029"/>
		<rect x="43.907" y="243.041" fill="#AF7B71" width="25.579" height="1.84"/>
	</g>
</g>
</svg>
