<?xml version="1.0" encoding="utf-8"?>
<!-- Generator: Adobe Illustrator 19.2.1, SVG Export Plug-In . SVG Version: 6.00 Build 0)  -->
<svg version="1.1" id="Capa_1" xmlns="http://www.w3.org/2000/svg" xmlns:xlink="http://www.w3.org/1999/xlink" x="0px" y="0px"
	 viewBox="0 0 1024 460.3" style="enable-background:new 0 0 1024 460.3;" xml:space="preserve">
<style type="text/css">
	.st0{fill:#DD6277;}
	.st1{fill:#E8A793;}
	.st2{fill:#CA9082;}
	.st3{fill:#F4E3EA;}
	.st4{fill:#777776;}
	.st5{fill:#FFFFFF;}
	.st6{fill:#E49C87;}
	.st7{fill:#CD9284;}
	.st8{fill:#5E6979;}
	.st9{fill:#555C67;}
	.st10{fill:#CCC7C6;}
	.st11{fill:#CCC7C5;}
	.st12{fill:#A9A8A8;}
	.st13{fill:#986D5D;}
	.st14{fill:none;stroke:#CDCDCC;stroke-width:0.5;stroke-miterlimit:10;}
	.st15{fill:none;stroke:#BDBCBC;stroke-width:0.5;stroke-miterlimit:10;}
	.st16{fill:none;stroke:#ACACAC;stroke-width:0.5;stroke-miterlimit:10;}
	.st17{fill:#E59C88;}
	.st18{fill:#D39181;}
	.st19{fill:#BC877E;}
	.st20{fill:#433A3D;}
	.st21{fill:#AF7B71;}
	.st22{fill:#E48994;}
	.st23{fill:#40454B;}
	.st24{fill:#BC877F;}
	.st25{fill:#A97D4F;}
	.st26{fill:#72573C;}
	.st27{fill:#EDEDED;}
	.st28{fill:#B2B2B2;}
	.st29{opacity:0.77;fill:#986D5D;enable-background:new    ;}
	.st30{fill:#5B3C17;}
</style>
<g>
	<g>
		<path class="st0" d="M222.7,277c0,3.8-1.4,6.8-3.1,6.8s-3.1-3.1-3.1-6.8s1.4-6.8,3.1-6.8C221.3,270.1,222.7,273.2,222.7,277z"/>
		<path class="st0" d="M234.1,267.7c0,3.8-1.4,6.8-3.1,6.8c-1.7,0-3.1-3.1-3.1-6.8s1.4-6.8,3.1-6.8
			C232.8,260.8,234.1,263.8,234.1,267.7z"/>
		<ellipse class="st0" cx="243.4" cy="260.8" rx="3.1" ry="6.8"/>
		<ellipse class="st0" cx="254.1" cy="269.8" rx="3.1" ry="6.8"/>
		<path class="st0" d="M278.6,314.8c-3.2,1.9-6.6,2.4-7.5,1c-0.9-1.4,1.1-4.2,4.3-6.1c3.2-1.9,6.6-2.4,7.5-1
			C283.8,310.1,281.8,312.8,278.6,314.8z"/>
		<rect x="223" y="337.9" class="st1" width="26.4" height="12"/>
		<path class="st2" d="M249.5,338.2c0,1-0.8,1.7-1.8,1.7h-23c-1,0-1.8-0.8-1.8-1.7v-2.4c0-1,0.8-1.8,1.8-1.8h23c1,0,1.8,0.8,1.8,1.8
			V338.2z"/>
		<g>
			<path class="st1" d="M248.8,298c0.1-1.9,1.9-29.5,1.9-29.5s0.3-3.5,3.3-3.1c3.1,0.4,3.2,1.5,3.4,3.7c0.2,2.2,1,42.7,1,42.7
				c2.6-1.2,9.1-6.1,15.5-6c6.3,0.1,7.5,2.5,7.3,4.8c-0.2,2.5-0.9,2.9-2.1,3.7c-1.3,0.8-15.4,9-18,12c-2.5,3-8.8,9.3-11.8,9.5
				c-3,0.2-26.4,0-26.4,0s-4.2-3.2-5.2-6.1c-1-2.9-0.6-4-0.8-6.3c-0.2-2.3-0.4-25-0.4-25s-0.8-19.7-0.5-20.9
				c0.3-1.3,0.8-4.4,3.6-4.5c2.9-0.1,3.5,1.6,3.7,3.9s1.4,21.1,1.4,21.1l1.9-0.2c0,0,0.7-27.5,1-30.5c0.3-3,1.4-4.5,3.3-4.4
				c1.9,0.1,3.7-0.1,3.7,5.5s0.7,29.4,0.7,29.4l3.2,0.1c0,0,0.9-36.2,1.1-38.2c0.3-1.9,1.7-3.7,3.6-3.5c1.9,0.2,3.2,0.9,3.3,4.4
				c0.2,3.5,1.3,37.3,1.3,37.3L248.8,298z"/>
			<path class="st2" d="M231.7,297.8h21.4c-2.5,1.1-15.1,3-20.5,2.9c-5.4-0.1-13.3-2.9-13.3-2.9C221.8,298,231.7,297.8,231.7,297.8z
				"/>
			<path class="st2" d="M255.1,311.7c-2.8,0.6-9.8,1.8-15.9,11.5c-3.2-0.2-5.5,0-5.5,0c1.8-2.3,9.1-12.5,21.4-11.8"/>
		</g>
		<rect x="219.3" y="349.9" class="st3" width="33.9" height="110.4"/>
	</g>
	<g>
		<rect x="154.9" y="308.8" class="st4" width="38.1" height="3.9"/>
		<g>
			<path class="st5" d="M194.4,306.9c0,1-0.8,1.8-1.8,1.8h-37.4c-1,0-1.8-0.8-1.8-1.8v-7c0-1,0.8-1.8,1.8-1.8h37.4
				c1,0,1.8,0.8,1.8,1.8V306.9L194.4,306.9z"/>
			<g>
				<g>
					<g>
						<path class="st6" d="M199.6,233.3c-3,0-5.4,2.5-5.4,5.4v16.4c-0.9-0.1-1.7,0-2.1,0.3v-14.7v-3.7V211c0-2.7-2.2-4.9-4.9-4.9
							s-4.9,2.2-4.9,4.9v26.2l-1.6,0.1v-33.3c0-2.7-2.2-4.9-4.9-4.9c-2.7,0-4.9,2.2-4.9,4.9v33.6l-1.7,0.1v-27.2
							c0-2.7-2.2-4.9-4.9-4.9c-2.7,0-4.9,2.2-4.9,4.9v27.6l-1.9,0.1v-20.8c0-2.7-2.2-4.9-4.9-4.9s-4.9,2.2-4.9,4.9v21
							c0,0-0.7,13.8-0.4,23c0.3,9.2,8.5,18.6,9.5,19.2c-0.4,0.8,0.1,17.5,0.1,17.5h34.9c0,0,0.3-11.9,0.4-14.1
							c4.7-2.4,11.9-13.6,12.9-23.2h0.1v-22.2C205.1,235.7,202.6,233.3,199.6,233.3z"/>
						<path class="st7" d="M170.1,238l-22,1c1.7,0.8,18.2,1.8,22,1.6c3.9-0.1,18-2,21.5-3.1C187.3,237.7,170.1,238,170.1,238z"/>
						<path class="st7" d="M176.1,273.8c0,0,2-12,15.5-18.6c-15.3,3.7-20.1,13.5-22.2,18.6C172.1,273.8,176.1,273.8,176.1,273.8z"/>
					</g>
					<rect x="169.3" y="288.9" class="st7" width="2.9" height="9.3"/>
					<rect x="177.6" y="288.9" class="st7" width="3.2" height="9.3"/>
				</g>
				<circle class="st8" cx="190.4" cy="303.5" r="3.3"/>
				<rect x="154.9" y="310.7" class="st8" width="38.1" height="147.9"/>
				<rect x="169.3" y="310.7" class="st9" width="16.5" height="147.9"/>
			</g>
		</g>
		<g>
			<path class="st5" d="M194.4,306.9c0,1-0.8,1.8-1.8,1.8h-37.4c-1,0-1.8-0.8-1.8-1.8v-7c0-1,0.8-1.8,1.8-1.8h37.4
				c1,0,1.8,0.8,1.8,1.8V306.9L194.4,306.9z"/>
			<g>
				<g>
					<g>
						<path class="st6" d="M199.6,233.3c-3,0-5.4,2.5-5.4,5.4v16.4c-0.9-0.1-1.7,0-2.1,0.3v-14.7v-3.7V211c0-2.7-2.2-4.9-4.9-4.9
							s-4.9,2.2-4.9,4.9v26.2l-1.6,0.1v-33.3c0-2.7-2.2-4.9-4.9-4.9c-2.7,0-4.9,2.2-4.9,4.9v33.6l-1.7,0.1v-27.2
							c0-2.7-2.2-4.9-4.9-4.9c-2.7,0-4.9,2.2-4.9,4.9v27.6l-1.9,0.1v-20.8c0-2.7-2.2-4.9-4.9-4.9s-4.9,2.2-4.9,4.9v21
							c0,0-0.7,13.8-0.4,23c0.3,9.2,8.5,18.6,9.5,19.2c-0.4,0.8,0.1,17.5,0.1,17.5h34.9c0,0,0.3-11.9,0.4-14.1
							c4.7-2.4,11.9-13.6,12.9-23.2h0.1v-22.2C205.1,235.7,202.6,233.3,199.6,233.3z"/>
						<path class="st7" d="M170.1,238l-22,1c1.7,0.8,18.2,1.8,22,1.6c3.9-0.1,18-2,21.5-3.1C187.3,237.7,170.1,238,170.1,238z"/>
						<path class="st7" d="M176.1,273.8c0,0,2-12,15.5-18.6c-15.3,3.7-20.1,13.5-22.2,18.6C172.1,273.8,176.1,273.8,176.1,273.8z"/>
					</g>
					<rect x="169.3" y="288.9" class="st7" width="2.9" height="9.3"/>
					<rect x="177.6" y="288.9" class="st7" width="3.2" height="9.3"/>
				</g>
				<circle class="st10" cx="190.4" cy="303.5" r="3.3"/>
				<rect x="154.9" y="310.7" class="st11" width="38.1" height="149.6"/>
				<rect x="169.3" y="310.7" class="st12" width="16.5" height="149.6"/>
			</g>
		</g>
	</g>
	<g>
		<path class="st6" d="M141.3,305.4c-2.3,0-4.2,1.8-4.2,4.2v12.7c-0.7-0.1-1.3,0-1.7,0.2v-11.3v-2.9v-20.1c0-2.1-1.7-3.8-3.8-3.8
			s-3.8,1.7-3.8,3.8v20.4h-1.2v-25.8c0-2.1-1.7-3.8-3.8-3.8s-3.8,1.7-3.8,3.8v26h-1.3v-21.1c0-2.1-1.7-3.8-3.8-3.8s-3.8,1.7-3.8,3.8
			V309l-1.5,0.1v-16c0-2.1-1.7-3.8-3.8-3.8c-2.1,0-3.8,1.7-3.8,3.8v16.2c0,0-0.3,10.6-0.3,17.8c-0.1,12.5,7.2,17.9,7.9,18.4
			c-0.3,0.6,0,114.7,0,114.7h27c0,0-0.2-112-0.1-113.7c3.6-1.8,9.8-10.7,9.7-19.8h0.1v-17.2C145.4,307.3,143.5,305.4,141.3,305.4z"
			/>
		<path class="st7" d="M118.4,309.1l-17,0.8c1.3,0.6,14,1.3,17,1.2c3-0.1,13.9-1.6,16.6-2.4C131.7,308.8,118.4,309.1,118.4,309.1z"
			/>
		<path class="st7" d="M123,336.8c0,0,1.6-9.3,12-14.4c-11.8,2.9-15.5,10.4-17.2,14.4C119.9,336.8,123,336.8,123,336.8z"/>
	</g>
	<g>
		<path class="st13" d="M135.6,377.6c-1.4,0.8-2.8,1.4-4.5,1.9c1.6-0.7,3.1-1.5,4.5-2.5V376c-0.4,0.3-0.9,0.6-1.3,0.9
			c0.4-0.4,0.9-0.6,1.3-1v-1.1c-2.5,2.2-5.8,4.1-9.6,5.5c-0.4,0.1-0.6,0.2-1,0.4c-0.3,0.1-0.4,0.1-0.7,0.2c-0.4,0.1-0.9,0.1-1.3,0.2
			c-0.3,0-0.5,0-0.8,0.1c-5.3,0.2-10.1-0.9-13.8-2.6v1c2,1,4.3,1.7,6.9,2.1c-2.6-0.2-4.9-0.7-6.9-1.5v1c2,0.8,4.3,1.3,6.9,1.5
			c-0.1,0-0.1,0-0.2,0c-2.5,0-4.8-0.4-6.8-1.1v1c1.9,0.6,4.2,1,6.8,1c2.9,0,6-0.5,9-1.4c4.2-0.4,8.1-1.5,11.3-3.2V377.6L135.6,377.6
			z"/>
		<path class="st13" d="M118.7,357.6c0.3-0.1,0.4-0.1,0.7-0.2c0.4-0.1,0.9-0.1,1.3-0.2c0.3,0,0.5,0,0.8-0.1c0.4,0,0.7,0,1.1,0
			c5,0,9.5,1.1,13,2.8v-1c-2.1-1.1-4.5-1.8-7.2-2.3c2.7,0.2,5.1,0.8,7.2,1.7v-1c-2.1-0.9-4.5-1.4-7.2-1.6c0.1,0,0.1,0,0.2,0
			c2.7,0,5.1,0.4,7,1.2v-1c-2-0.7-4.4-1.1-7-1.1c-2.9,0-6,0.5-9,1.4c-4.1,0.4-7.9,1.4-11.1,3.1v1c1.3-0.7,2.6-1.3,4.1-1.8
			c-1.5,0.6-2.9,1.4-4.1,2.2v1.1c0.4-0.3,0.6-0.4,1-0.7c-0.4,0.3-0.7,0.5-1,0.8v1.1c2.5-2.1,5.6-3.9,9.2-5.3
			C118.1,357.8,118.4,357.7,118.7,357.6z"/>
	</g>
	<g>
		<path class="st14" d="M142.2,363c1.4,6.7-6.6,14-17.8,16.4c-11.2,2.4-21.5-1.1-22.9-7.7c-1.4-6.7,6.6-14,17.8-16.4
			C130.6,352.8,140.8,356.3,142.2,363z"/>
		
			<ellipse transform="matrix(0.9378 -0.3471 0.3471 0.9378 -119.9145 65.1345)" class="st15" cx="121.9" cy="367.3" rx="20.8" ry="12.4"/>
		<path class="st16" d="M142.7,366.7c0.2,6.8-9,12.6-20.4,13c-11.5,0.4-21-4.9-21.1-11.7c-0.2-6.8,9-12.6,20.4-13
			C133,354.6,142.5,359.8,142.7,366.7z"/>
	</g>
	<rect x="108.5" y="352.8" class="st17" width="27" height="20.5"/>
	<rect x="116.3" y="350.4" class="st7" width="2.4" height="11.2"/>
	<rect x="123.1" y="350.4" class="st7" width="2.4" height="11.2"/>
	<g>
		<g>
			<path class="st18" d="M60.8,267.5c-3,0-5.4,2.5-5.4,5.4v16.3c-0.9-0.1-1.7,0-2.1,0.3V275v-3.7v-25.8c0-2.7-2.2-4.9-4.9-4.9
				c-2.7,0-4.9,2.2-4.9,4.9v26.1H42v-33.1c0-2.7-2.2-4.9-4.9-4.9s-4.9,2.2-4.9,4.9V272l-1.7,0.1v-27.2c0-2.7-2.2-4.9-4.9-4.9
				s-4.9,2.2-4.9,4.9v27.4l-1.9,0.1v-20.5c0-2.7-2.2-4.9-4.9-4.9s-4.9,2.2-4.9,4.9v20.9c0,0-0.7,13.7-0.4,22.9
				c0.3,9.2,11.8,24,12.7,24.6C21,321,22,436.6,22,436.6h26c0,0,1.6-116.3,1.8-118.5c4.7-2.4,15.4-13.5,16.3-23.1h0.1V273
				C66.2,270,63.8,267.5,60.8,267.5z"/>
			<path class="st19" d="M31.5,272.3l-21.9,1c1.7,0.8,18.1,1.7,21.9,1.6c3.8-0.1,17.9-2,21.3-3.1C48.6,272,31.5,272.3,31.5,272.3z"
				/>
			<path class="st19" d="M37.5,308c0,0,2-12,15.4-18.5c-15.2,3.7-20,13.4-22.1,18.5C33.4,308,37.5,308,37.5,308z"/>
		</g>
		<rect x="18.9" y="326.8" class="st5" width="33.9" height="133.5"/>
	</g>
	<g>
		<g>
			<path class="st17" d="M78.7,356.5c-2.4,0-4.3,1.9-4.3,4.3v13.1c-0.7-0.1-1.3,0-1.7,0.2v-11.7v-3v-20.6c0-2.2-1.8-3.9-3.9-3.9
				c-2.2,0-3.9,1.8-3.9,3.9v20.9h-1.2v-26.5c0-2.2-1.8-3.9-3.9-3.9c-2.2,0-3.9,1.8-3.9,3.9v26.7l-1.3,0.1v-21.7
				c0-2.2-1.8-3.9-3.9-3.9c-2.2,0-3.9,1.8-3.9,3.9v21.9l-1.5,0.1v-16.4c0-2.2-1.8-3.9-3.9-3.9c-2.1,0-3.9,1.8-3.9,3.9v16.7
				c0,0-0.5,11-0.3,18.3c0.3,7.4,9.5,19.1,10.2,19.7c-0.3,0.6,0.4,61.6,0.4,61.6l21.1,0.1c0,0,1.1-61.6,1.2-63.4
				c3.7-1.8,12.3-10.8,13.1-18.4h0.1v-17.6C83.1,358.4,81.2,356.5,78.7,356.5z"/>
			<path class="st7" d="M55.3,360.4l-17.5,0.8c1.3,0.7,14.5,1.4,17.5,1.3c3.1-0.1,14.3-1.6,17-2.5C69,360,55.3,360.4,55.3,360.4z"/>
			<path class="st7" d="M60,388.8c0,0,1.7-9.6,12.3-14.8c-12.1,3-16,10.7-17.6,14.8C56.8,388.8,60,388.8,60,388.8z"/>
		</g>
		<rect x="45.2" y="401.7" width="26.3" height="10.5"/>
		<rect x="45.2" y="400.8" class="st20" width="26.3" height="10.5"/>
		<rect x="47.2" y="412.2" class="st21" width="22.5" height="1.6"/>
	</g>
</g>
<g>
	<g>
		<path class="st22" d="M772.5,264.3c0,3.8-1.3,6.8-3,6.8s-3-3-3-6.8c0-3.8,1.3-6.8,3-6.8S772.5,260.6,772.5,264.3z"/>
		<path class="st22" d="M783.8,255.1c0,3.8-1.3,6.8-3,6.8c-1.7,0-3-3-3-6.8s1.3-6.8,3-6.8C782.5,248.3,783.8,251.4,783.8,255.1z"/>
		<path class="st22" d="M795.9,248.3c0,3.8-1.3,6.8-3,6.8c-1.7,0-3-3-3-6.8c0-3.8,1.3-6.8,3-6.8
			C794.6,241.6,795.9,244.6,795.9,248.3z"/>
		<ellipse class="st22" cx="803.5" cy="257.1" rx="3" ry="6.8"/>
		<ellipse transform="matrix(0.8565 -0.5161 0.5161 0.8565 -35.7787 469.2911)" class="st22" cx="826.2" cy="299" rx="6.8" ry="3"/>
		<rect x="772.8" y="324.3" class="st1" width="26" height="11.9"/>
		<path class="st2" d="M798.9,324.7c0,0.9-0.8,1.7-1.7,1.7h-22.6c-0.9,0-1.7-0.8-1.7-1.7v-2.4c0-0.9,0.8-1.7,1.7-1.7h22.7
			c0.9,0,1.7,0.8,1.7,1.7L798.9,324.7L798.9,324.7z"/>
		<g>
			<path class="st1" d="M798.4,284.9c0.1-1.9,1.9-29.1,1.9-29.1s0.3-3.4,3.3-3c3,0.4,3.2,1.5,3.3,3.7c0.3,2.2,1,42.1,1,42.1
				c2.6-1.2,9-5.9,15.2-5.9c6.3,0.1,7.3,2.4,7.2,4.8c-0.2,2.4-0.8,2.8-2.1,3.7c-1.3,0.8-15.2,8.9-17.8,11.8s-8.6,9.1-11.6,9.4
				c-2.9,0.3-26,0-26,0s-4.2-3.1-5.1-5.9c-1-2.8-0.7-4-0.8-6.3c-0.2-2.3-0.4-24.6-0.4-24.6s-0.9-19.4-0.6-20.7
				c0.3-1.3,0.8-4.4,3.6-4.4c2.8-0.1,3.4,1.5,3.6,3.8c0.2,2.3,1.4,20.9,1.4,20.9l1.9-0.3c0,0,0.7-27.1,1-30.1
				c0.3-2.9,1.4-4.4,3.3-4.4c1.9,0.1,3.7-0.1,3.7,5.5c0,5.5,0.7,28.9,0.7,28.9l3.3,0.1c0,0,0.8-35.7,1.1-37.6
				c0.3-1.9,1.6-3.6,3.5-3.4c1.9,0.2,3.2,0.8,3.3,4.3c0.2,3.4,1.3,36.8,1.3,36.8L798.4,284.9z"/>
			<path class="st2" d="M781.5,284.9h21.1c-2.4,1-14.9,2.9-20.3,2.8c-5.4-0.1-13.1-2.8-13.1-2.8
				C771.7,284.9,781.5,284.9,781.5,284.9z"/>
			<path class="st2" d="M804.4,298.6c-2.8,0.7-9.6,1.8-15.7,11.4c-3.2-0.2-5.5,0-5.5,0c1.8-2.2,9-12.4,21.1-11.6"/>
		</g>
		<rect x="769.1" y="336.2" class="st5" width="33.4" height="124"/>
	</g>
	<g>
		<rect x="904.5" y="316.6" class="st23" width="36.3" height="3.8"/>
		<g>
			<path class="st5" d="M942.2,314.8c0,0.9-0.8,1.7-1.7,1.7h-35.7c-0.9,0-1.7-0.8-1.7-1.7v-6.7c0-0.9,0.8-1.7,1.7-1.7h35.7
				c0.9,0,1.7,0.8,1.7,1.7V314.8L942.2,314.8z"/>
			<g>
				<g>
					<g>
						<path class="st6" d="M947.2,244.6c-2.8,0-5.2,2.3-5.2,5.2v15.7c-0.8-0.1-1.6,0-2,0.3v-14v-3.5v-24.9c0-2.6-2.1-4.7-4.7-4.7
							c-2.6,0-4.7,2.1-4.7,4.7v25l-1.5,0.1v-31.7c0-2.6-2.1-4.7-4.7-4.7c-2.6,0-4.7,2.1-4.7,4.7v32.1l-1.6,0.1v-26
							c0-2.6-2.1-4.7-4.7-4.7c-2.6,0-4.7,2.1-4.7,4.7v26.2l-1.8,0.1v-19.7c0-2.6-2.1-4.7-4.7-4.7s-4.7,2.1-4.7,4.7v20
							c0,0-0.7,13.1-0.3,21.9s8.1,17.8,9,18.3c-0.3,0.8,0.1,16.7,0.1,16.7h33.3c0,0,0.3-11.4,0.4-13.5c4.4-2.3,11.4-13,12.3-22.1
							h0.1v-21.3C952.4,246.8,950,244.6,947.2,244.6z"/>
						<path class="st7" d="M919,249.1l-21,0.9c1.6,0.8,17.3,1.7,21,1.5c3.7-0.1,17.2-1.9,20.5-2.9C935.5,248.8,919,249.1,919,249.1z
							"/>
						<path class="st7" d="M924.7,283.3c0,0,1.9-11.5,14.8-17.8c-14.6,3.5-19.2,12.9-21.2,17.8C920.9,283.3,924.7,283.3,924.7,283.3
							z"/>
					</g>
					<rect x="918.3" y="297.7" class="st7" width="2.8" height="8.9"/>
					<rect x="926.2" y="297.7" class="st7" width="3" height="8.9"/>
				</g>
				<circle class="st8" cx="938.5" cy="311.6" r="3.2"/>
				<rect x="904.5" y="318.4" class="st8" width="36.3" height="141.1"/>
				<rect x="918.3" y="318.4" class="st9" width="15.8" height="141.1"/>
			</g>
		</g>
		<g>
			<path class="st5" d="M942.2,314.8c0,0.9-0.8,1.7-1.7,1.7h-35.7c-0.9,0-1.7-0.8-1.7-1.7v-6.7c0-0.9,0.8-1.7,1.7-1.7h35.7
				c0.9,0,1.7,0.8,1.7,1.7V314.8L942.2,314.8z"/>
			<g>
				<g>
					<g>
						<path class="st6" d="M947.2,244.6c-2.8,0-5.2,2.3-5.2,5.2v15.7c-0.8-0.1-1.6,0-2,0.3v-14v-3.5v-24.9c0-2.6-2.1-4.7-4.7-4.7
							c-2.6,0-4.7,2.1-4.7,4.7v25l-1.5,0.1v-31.7c0-2.6-2.1-4.7-4.7-4.7c-2.6,0-4.7,2.1-4.7,4.7v32.1l-1.6,0.1v-26
							c0-2.6-2.1-4.7-4.7-4.7c-2.6,0-4.7,2.1-4.7,4.7v26.2l-1.8,0.1v-19.7c0-2.6-2.1-4.7-4.7-4.7s-4.7,2.1-4.7,4.7v20
							c0,0-0.7,13.1-0.3,21.9s8.1,17.8,9,18.3c-0.3,0.8,0.1,16.7,0.1,16.7h33.3c0,0,0.3-11.4,0.4-13.5c4.4-2.3,11.4-13,12.3-22.1
							h0.1v-21.3C952.4,246.8,950,244.6,947.2,244.6z"/>
						<path class="st7" d="M919,249.1l-21,0.9c1.6,0.8,17.3,1.7,21,1.5c3.7-0.1,17.2-1.9,20.5-2.9C935.5,248.8,919,249.1,919,249.1z
							"/>
						<path class="st7" d="M924.7,283.3c0,0,1.9-11.5,14.8-17.8c-14.6,3.5-19.2,12.9-21.2,17.8C920.9,283.3,924.7,283.3,924.7,283.3
							z"/>
					</g>
					<rect x="918.3" y="297.7" class="st7" width="2.8" height="8.9"/>
					<rect x="926.2" y="297.7" class="st7" width="3" height="8.9"/>
				</g>
				<circle class="st8" cx="938.5" cy="311.6" r="3.2"/>
				<rect x="904.5" y="318.4" class="st8" width="36.3" height="141.8"/>
				<polygon class="st9" points="934.1,460.1 918.3,460.2 918.3,318.4 934.1,318.4 				"/>
			</g>
		</g>
	</g>
	<g>
		<g>
			<path class="st18" d="M827.9,358.2c-1.9,0-3.4,1.5-3.4,3.4V372c-0.6-0.1-1,0-1.3,0.2v-9.2v-2.3v-16.3c0-1.7-1.4-3.1-3.1-3.1
				s-3.1,1.3-3.1,3.1v16.5h-1v-20.9c0-1.7-1.4-3.1-3.1-3.1s-3.1,1.3-3.1,3.1V361h-1.1v-17.2c0-1.7-1.3-3.1-3.1-3.1
				c-1.7,0-3.1,1.4-3.1,3.1v17.3h-1.2v-13c0-1.7-1.4-3.1-3.1-3.1s-3.1,1.3-3.1,3.1v13.1c0,0-0.4,8.7-0.3,14.5
				c0.2,5.8,5.4,11.7,5.9,12.1c-0.3,0.5,0.1,11.1,0.1,11.1h21.9c0,0,0.2-7.5,0.3-8.9c2.9-1.5,7.5-8.5,8.1-14.6h0.2v-14
				C831.4,359.7,829.9,358.2,827.9,358.2z"/>
			<path class="st24" d="M809.4,361.2l-13.8,0.7c1,0.5,11.5,1.1,13.8,1c2.4-0.1,11.3-1.3,13.5-1.9
				C820.2,361,809.4,361.2,809.4,361.2z"/>
			<path class="st24" d="M813.2,383.8c0,0,1.3-7.6,9.7-11.7c-9.6,2.3-12.6,8.5-14,11.7C810.6,383.8,813.2,383.8,813.2,383.8z"/>
		</g>
		<rect x="796.5" y="399.8" class="st25" width="29.4" height="60.4"/>
		<rect x="807.8" y="399.8" class="st26" width="12.8" height="60.4"/>
		<path class="st5" d="M826.7,396.7c0-0.9-0.7-1.6-1.5-1.6h-27.8c-0.8,0-1.5,0.8-1.5,1.6v2.6c0,0.9,0.7,1.6,1.5,1.6h27.9
			c0.8,0,1.5-0.8,1.5-1.6L826.7,396.7L826.7,396.7z"/>
		<circle class="st26" cx="801" cy="398.1" r="1.8"/>
	</g>
	<g>
		<g>
			<g>
				<circle class="st27" cx="860.2" cy="372.4" r="3.4"/>
				<circle class="st5" cx="860.2" cy="370.5" r="1.3"/>
				<path class="st28" d="M862.4,369.8c0.3,0.5,0.4,1,0.4,1.6c0,1.8-1.4,3.2-3.2,3.2c-1.3,0-2.4-0.8-2.8-1.9
					c0.1,1.8,1.6,3.3,3.4,3.3c1.9,0,3.4-1.6,3.4-3.5C863.6,371.4,863.2,370.4,862.4,369.8z"/>
			</g>
			<g>
				<path class="st6" d="M891.1,313.4c-2.2,0-4,1.8-4,4v12.1c-0.7-0.1-1.3,0-1.6,0.2v-10.8v-2.8v-19.2c0-2-1.6-3.6-3.6-3.6
					c-2,0-3.6,1.6-3.6,3.6v19.4h-1.2v-24.5c0-2-1.6-3.6-3.6-3.6c-2,0-3.6,1.6-3.6,3.6v24.8h-1.3v-20.1c0-2-1.6-3.6-3.6-3.6
					c-2,0-3.6,1.6-3.6,3.6v20.3L860,317v-15.2c0-2-1.6-3.6-3.6-3.6s-3.6,1.6-3.6,3.6v15.5c0,0-0.3,10.1-0.3,17
					c-0.1,12,6.9,17.1,7.5,17.6c-0.3,0.6,0.1,108.4,0.1,108.4h25.6c0,0-0.1-105.9,0-107.5c3.4-1.8,9.4-10.2,9.3-18.9h0.1v-16.3
					C895.1,315.2,893.3,313.4,891.1,313.4z"/>
				<path class="st7" d="M869.3,316.9l-16.2,0.8c1.3,0.6,13.4,1.3,16.2,1.2c2.8-0.1,13.2-1.5,15.8-2.3
					C882,316.7,869.3,316.9,869.3,316.9z"/>
				<path class="st7" d="M873.7,343.4c0,0,1.5-8.9,11.5-13.7c-11.3,2.8-14.8,10-16.4,13.7C870.7,343.4,873.7,343.4,873.7,343.4z"/>
			</g>
			<path class="st29" d="M882,376.7c-2,0-3.6,1.5-3.9,3.4c-0.7-0.9-1.8-1.6-3-1.6c-2.1,0-3.8,1.7-3.8,3.8c0,0.1,0,0.1,0,0.2
				c-0.7-0.9-1.8-1.5-2.9-1.5c-2.1,0-3.8,1.7-3.8,3.8c0,0.1,0,0.2,0,0.3c-0.7-1-1.8-1.7-3.1-1.7c-0.6,0-1.2,0.2-1.7,0.4v6.7
				c0.5,0.3,1.1,0.4,1.7,0.4c2.1,0,3.8-1.7,3.8-3.8c0-0.1,0-0.2,0-0.3c0.7,1,1.8,1.7,3.1,1.7c2.1,0,3.8-1.7,3.8-3.8
				c0-0.1,0-0.1,0-0.2c0.7,0.9,1.8,1.5,2.9,1.5c1.9,0,3.5-1.4,3.7-3.3c0.7,1,1.8,1.7,3.2,1.7c1.6,0,2.9-1,3.5-2.3v-3
				C885,377.7,883.6,376.7,882,376.7z"/>
			<g>
				<circle class="st27" cx="889.1" cy="369.2" r="3.8"/>
				<circle class="st5" cx="889.1" cy="367.1" r="1.4"/>
				<path class="st28" d="M891.6,366.3c0.3,0.5,0.4,1.1,0.4,1.8c0,2-1.6,3.6-3.5,3.6c-1.4,0-2.7-0.8-3.2-2.1c0.2,2,1.8,3.6,3.8,3.6
					c2.1,0,3.8-1.8,3.8-3.9C892.9,368.1,892.4,367,891.6,366.3z"/>
			</g>
			<g>
				<path class="st27" d="M891.2,373.9c0,2.1-1.7,3.8-3.8,3.8c-2.1,0-3.8-1.7-3.8-3.8s1.7-3.8,3.8-3.8
					C889.5,370.1,891.2,371.8,891.2,373.9z"/>
				<circle class="st5" cx="887.4" cy="371.9" r="1.4"/>
				<path class="st28" d="M889.9,371c0.3,0.5,0.4,1.1,0.4,1.8c0,2-1.6,3.6-3.5,3.6c-1.4,0-2.7-0.8-3.2-2.1c0.2,2,1.8,3.6,3.8,3.6
					c2.1,0,3.8-1.8,3.8-3.9C891.2,372.8,890.7,371.8,889.9,371z"/>
			</g>
			<g>
				<circle class="st27" cx="881.8" cy="377.1" r="3.8"/>
				<circle class="st5" cx="881.8" cy="375" r="1.4"/>
				<path class="st28" d="M884.3,374.3c0.3,0.5,0.5,1.1,0.5,1.8c0,2-1.6,3.6-3.5,3.6c-1.4,0-2.7-0.8-3.2-2.1c0.2,2,1.8,3.6,3.8,3.6
					c2.1,0,3.8-1.8,3.8-3.9C885.6,376.1,885,375,884.3,374.3z"/>
			</g>
			<g>
				<circle class="st27" cx="875.2" cy="379.2" r="3.8"/>
				<circle class="st5" cx="875.1" cy="377.1" r="1.4"/>
				<path class="st28" d="M877.6,376.3c0.3,0.5,0.4,1.1,0.4,1.8c0,2-1.6,3.6-3.5,3.6c-1.4,0-2.7-0.8-3.2-2.1c0.2,2,1.8,3.6,3.8,3.6
					c2.1,0,3.8-1.8,3.8-3.9C878.9,378.1,878.4,377,877.6,376.3z"/>
			</g>
			<g>
				<circle class="st27" cx="868.6" cy="381.7" r="3.8"/>
				<circle class="st5" cx="868.5" cy="379.6" r="1.4"/>
				<path class="st28" d="M871.1,378.8c0.3,0.5,0.4,1.1,0.4,1.8c0,2-1.6,3.6-3.5,3.6c-1.4,0-2.7-0.8-3.2-2.1c0.2,2,1.8,3.6,3.8,3.6
					c2.1,0,3.8-1.8,3.8-3.9C872.3,380.5,871.8,379.5,871.1,378.8z"/>
			</g>
			<g>
				<path class="st27" d="M860,375.2c0,1.8-1.5,3.4-3.4,3.4c-1.9,0-3.4-1.5-3.4-3.4c0-1.8,1.5-3.4,3.4-3.4
					C858.5,371.8,860,373.4,860,375.2z"/>
				<path class="st5" d="M857.7,373.4c0,0.7-0.6,1.3-1.3,1.3s-1.3-0.6-1.3-1.3c0-0.7,0.6-1.3,1.3-1.3S857.7,372.7,857.7,373.4z"/>
				<path class="st28" d="M858.8,372.7c0.3,0.5,0.4,1,0.4,1.6c0,1.8-1.4,3.2-3.2,3.2c-1.3,0-2.4-0.8-2.8-1.9
					c0.2,1.8,1.6,3.3,3.4,3.3c1.9,0,3.4-1.6,3.4-3.5C860,374.2,859.5,373.3,858.8,372.7z"/>
			</g>
			<g>
				<circle class="st27" cx="855.2" cy="380.7" r="3.8"/>
				<circle class="st5" cx="855.2" cy="378.6" r="1.4"/>
				<path class="st28" d="M857.7,377.9c0.3,0.5,0.4,1.1,0.4,1.8c0,2-1.6,3.6-3.5,3.6c-1.4,0-2.7-0.8-3.2-2.1c0.2,2,1.8,3.6,3.8,3.6
					c2.1,0,3.8-1.8,3.8-3.9C859.1,379.7,858.6,378.6,857.7,377.9z"/>
			</g>
			<g>
				<path class="st27" d="M865.2,383.7c0,2.1-1.7,3.8-3.8,3.8c-2.1,0-3.8-1.7-3.8-3.8s1.7-3.8,3.8-3.8
					C863.5,379.9,865.2,381.6,865.2,383.7z"/>
				<circle class="st5" cx="861.3" cy="381.6" r="1.4"/>
				<path class="st28" d="M863.9,380.8c0.3,0.5,0.4,1.1,0.4,1.8c0,2-1.6,3.6-3.5,3.6c-1.4,0-2.7-0.8-3.2-2.1c0.2,2,1.8,3.6,3.8,3.6
					c2.1,0,3.8-1.8,3.8-3.9C865.2,382.6,864.7,381.6,863.9,380.8z"/>
			</g>
		</g>
		<rect x="867.3" y="356.4" class="st7" width="2.3" height="10.7"/>
		<rect x="873.7" y="356.4" class="st7" width="2.3" height="10.7"/>
	</g>
	<g>
		<g>
			<path class="st18" d="M1009.5,298.1c-2.8,0-5.2,2.3-5.2,5.2v15.7c-0.8-0.1-1.6,0-2,0.3v-14v-3.5v-24.9c0-2.6-2.1-4.7-4.7-4.7
				s-4.7,2.1-4.7,4.7v25l-1.5,0.1v-31.7c0-2.6-2.1-4.7-4.7-4.7c-2.6,0-4.7,2.1-4.7,4.7v32.1l-1.6,0.1v-26c0-2.6-2.1-4.7-4.7-4.7
				c-2.6,0-4.7,2.1-4.7,4.7v26.3l-1.8,0.1v-19.8c0-2.6-2.1-4.7-4.7-4.7c-2.6,0-4.7,2.1-4.7,4.7v20c0,0-0.7,13.1-0.3,21.9
				c0.3,8.8,11.3,22.9,12.1,23.6c-0.3,0.8-1,111.7-1,111.7h26.5c0,0,1.6-111.5,1.7-113.7c4.4-2.3,14.7-13,15.7-22.1h0.1v-21.2
				C1014.7,300.3,1012.3,298.1,1009.5,298.1z"/>
			<path class="st19" d="M981.4,302.6l-21,0.9c1.6,0.8,17.3,1.7,21,1.5c3.7-0.1,17.2-1.9,20.5-2.9
				C997.8,302.3,981.4,302.6,981.4,302.6z"/>
			<path class="st19" d="M987,336.8c0,0,1.9-11.5,14.8-17.8c-14.6,3.5-19.2,12.9-21.2,17.8C983.2,336.8,987,336.8,987,336.8z"/>
		</g>
		<g>
			<path class="st21" d="M998.7,359.8c-1.7,1.3-6.6,2.6-13.3,2.6c-7.5,0-12.6-1.7-13.7-3v2.1c2.8,1.7,8.2,2.6,13.7,2.6
				c5.1,0,10.4-0.8,13.3-2.3V359.8z"/>
		</g>
		<g>
			<path class="st21" d="M998.7,357.5c-1.7,1.3-6.4,2.5-13.1,2.5c-7.5,0-12.6-1.7-13.7-3v2.1c2.8,1.7,8.2,2.6,13.7,2.6
				c5.1,0,10.2-0.8,13.1-2.3V357.5z"/>
		</g>
		<g>
			<path class="st30" d="M998.7,354.4v2c0.3,0.3,0.4,0.4,0.4,0.7c0,0.4-0.8,1.3-3.6,2.3c-2.7,0.8-6.3,1.4-10.1,1.5
				c-0.6,0-1.1,0-1.7,0c-8.1,0-12.2-1.9-12.3-3c0-0.1,0.1-0.3,0.2-0.4l0,0v-2.2c-1.3,0.8-1.8,1.7-1.8,2.7c0.1,3.2,7.1,4.6,14,4.6
				c0.6,0,1.1,0,1.7,0c4-0.2,7.8-0.7,10.6-1.6c3.2-1,4.9-2.4,4.8-4C1000.8,356,1000,355,998.7,354.4z"/>
			<path class="st30" d="M998.8,352v2.2c0.4,0.3,0.3,0.3,0.3,0.6c0,0.4-0.8,1.3-3.6,2.3c-2.7,0.8-6.3,1.4-10.1,1.5
				c-0.6,0-1.1,0-1.7,0c-8.1,0-12.2-1.9-12.3-3c0-0.2-0.1-0.2,0.2-0.3v-2.3c-1.3,0.8-1.8,1.8-1.8,2.8c0.1,3.2,7.1,4.6,14,4.6
				c0.6,0,1.1,0,1.7,0c4-0.2,7.8-0.7,10.6-1.6c3.2-1,4.9-2.4,4.8-3.9C1000.8,353.6,1000.3,352.7,998.8,352z"/>
		</g>
	</g>
</g>
</svg>
