<?xml version="1.0" encoding="utf-8"?>
<!-- Generator: Adobe Illustrator 15.0.0, SVG Export Plug-In . SVG Version: 6.00 Build 0)  -->
<!DOCTYPE svg PUBLIC "-//W3C//DTD SVG 1.1//EN" "http://www.w3.org/Graphics/SVG/1.1/DTD/svg11.dtd">
<svg version="1.1" id="Capa_1" xmlns="http://www.w3.org/2000/svg" xmlns:xlink="http://www.w3.org/1999/xlink" x="0px" y="0px"
	 width="296.975px" height="296.379px" viewBox="0 0 296.975 296.379" enable-background="new 0 0 296.975 296.379"
	 xml:space="preserve">
<g>
	<g>
		<path fill="#E48994" d="M7.788,62.482c0,4.477-1.608,8.1-3.594,8.1c-1.983,0-3.592-3.623-3.592-8.1
			c0-4.473,1.608-8.102,3.592-8.102C6.18,54.381,7.788,58.01,7.788,62.482z"/>
		<path fill="#E48994" d="M21.311,51.482c0,4.471-1.609,8.1-3.594,8.1s-3.594-3.629-3.594-8.1c0-4.477,1.609-8.102,3.594-8.102
			S21.311,47.006,21.311,51.482z"/>
		<path fill="#E48994" d="M35.789,43.381c0,4.471-1.609,8.102-3.593,8.102c-1.984,0-3.594-3.631-3.594-8.102
			c0-4.477,1.609-8.102,3.594-8.102C34.18,35.279,35.789,38.904,35.789,43.381z"/>
		<ellipse fill="#E48994" cx="44.779" cy="53.936" rx="3.593" ry="8.102"/>
		
			<ellipse transform="matrix(0.5161 0.8566 -0.8566 0.5161 123.6747 -11.2132)" fill="#E48994" cx="71.761" cy="103.842" rx="3.594" ry="8.1"/>
		<rect x="8.227" y="134.109" fill="#E8A793" width="31.1" height="14.184"/>
		<path fill="#CA9082" d="M39.326,134.57c0,1.115-0.902,2.018-2.018,2.018H10.244c-1.114,0-2.018-0.902-2.018-2.018v-2.857
			c0-1.113,0.903-2.018,2.018-2.018h27.064c1.115,0,2.018,0.904,2.018,2.018V134.57z"/>
		<g>
			<path fill="#E8A793" d="M38.654,87.08c0.084-2.27,2.27-34.717,2.27-34.717s0.338-4.117,3.951-3.611
				c3.615,0.504,3.783,1.764,4.035,4.369c0.252,2.607,1.177,50.268,1.177,50.268c3.109-1.43,10.758-7.146,18.239-7.061
				c7.48,0.082,8.742,2.855,8.574,5.713c-0.168,2.859-1.01,3.447-2.522,4.373c-1.513,0.922-18.155,10.592-21.183,14.121
				c-3.025,3.529-10.338,10.926-13.869,11.178c-3.529,0.252-31.1,0-31.1,0s-4.959-3.697-6.136-7.145
				c-1.177-3.445-0.758-4.791-0.926-7.48c-0.166-2.689-0.504-29.42-0.504-29.42s-0.924-23.113-0.588-24.627s0.926-5.213,4.286-5.295
				c3.363-0.084,4.121,1.848,4.287,4.539c0.168,2.689,1.682,24.881,1.682,24.881l2.27-0.252c0,0,0.841-32.363,1.177-35.895
				c0.336-3.529,1.681-5.295,3.95-5.211c2.27,0.086,4.371-0.084,4.371,6.557c0,6.643,0.84,34.549,0.84,34.549l3.868,0.082
				c0,0,1.008-42.615,1.344-44.885c0.336-2.268,1.934-4.287,4.203-4.119c2.269,0.166,3.782,1.008,3.95,5.129
				c0.168,4.117,1.512,43.875,1.512,43.875L38.654,87.08z"/>
			<path fill="#CA9082" d="M18.502,86.953h25.217c-2.9,1.199-17.778,3.531-24.208,3.404c-6.43-0.125-15.696-3.404-15.696-3.404
				C6.84,87.08,18.502,86.953,18.502,86.953z"/>
			<path fill="#CA9082" d="M45.926,103.346c-3.279,0.756-11.537,2.143-18.661,13.553c-3.845-0.189-6.556,0-6.556,0
				c2.143-2.646,10.78-14.814,25.217-13.805"/>
		</g>
		<rect x="3.814" y="148.293" fill="#FFFFFF" width="39.904" height="148.086"/>
	</g>
	<g>
		<rect x="165.346" y="124.846" fill="#40454B" width="43.373" height="4.473"/>
		<g>
			<path fill="#FFFFFF" d="M210.484,122.828c0,1.115-0.904,2.018-2.018,2.018H165.85c-1.113,0-2.016-0.902-2.016-2.018v-7.951
				c0-1.115,0.902-2.018,2.016-2.018h42.617c1.113,0,2.018,0.902,2.018,2.018V122.828z"/>
			<g>
				<g>
					<g>
						<path fill="#E49C87" d="M216.408,38.857c-3.412,0-6.176,2.766-6.176,6.178v18.719c-1.02-0.098-1.877-0.029-2.439,0.295V47.363
							v-4.242V13.529c0-3.084-2.504-5.586-5.59-5.586s-5.588,2.502-5.588,5.586v29.941l-1.809,0.059V5.586
							c0-3.084-2.504-5.586-5.59-5.586s-5.59,2.502-5.59,5.586v38.295l-1.934,0.061V12.9c0-3.086-2.502-5.588-5.588-5.588
							c-3.088,0-5.59,2.502-5.59,5.588v31.395l-2.188,0.068v-23.52c0-3.086-2.502-5.588-5.588-5.588s-5.59,2.502-5.59,5.588v23.871
							c0,0-0.756,15.721-0.419,26.227s9.749,21.182,10.758,21.938c-0.421,0.926,0.085,20.008,0.085,20.008h39.758
							c0,0,0.336-13.619,0.461-16.141c5.293-2.666,13.584-15.51,14.668-26.436h0.125V45.035
							C222.586,41.623,219.82,38.857,216.408,38.857z"/>
						<path fill="#CD9284" d="M182.809,44.338l-25.091,1.135c1.892,0.945,20.741,1.953,25.091,1.828
							c4.35-0.127,20.477-2.277,24.461-3.531C202.414,43.896,182.809,44.338,182.809,44.338z"/>
						<path fill="#CD9284" d="M189.615,85.125c0,0,2.336-13.742,17.654-21.246c-17.4,4.225-22.949,15.385-25.344,21.246
							C184.951,85.125,189.615,85.125,189.615,85.125z"/>
					</g>
					<rect x="181.926" y="102.336" fill="#CD9284" width="3.342" height="10.551"/>
					<rect x="191.256" y="102.336" fill="#CD9284" width="3.594" height="10.551"/>
				</g>
				<circle fill="#5E6979" cx="205.944" cy="118.854" r="3.782"/>
				<rect x="165.346" y="127.084" fill="#5E6979" width="43.373" height="168.537"/>
				<rect x="181.926" y="127.082" fill="#555C67" width="18.85" height="168.539"/>
			</g>
		</g>
		<g>
			<path fill="#FFFFFF" d="M210.484,122.828c0,1.115-0.904,2.018-2.018,2.018H165.85c-1.113,0-2.016-0.902-2.016-2.018v-7.951
				c0-1.115,0.902-2.018,2.016-2.018h42.617c1.113,0,2.018,0.902,2.018,2.018V122.828z"/>
			<g>
				<g>
					<g>
						<path fill="#E49C87" d="M216.408,38.857c-3.412,0-6.176,2.766-6.176,6.178v18.719c-1.02-0.098-1.877-0.029-2.439,0.295V47.363
							v-4.242V13.529c0-3.084-2.504-5.586-5.59-5.586s-5.588,2.502-5.588,5.586v29.941l-1.809,0.059V5.586
							c0-3.084-2.504-5.586-5.59-5.586s-5.59,2.502-5.59,5.586v38.295l-1.934,0.061V12.9c0-3.086-2.502-5.588-5.588-5.588
							c-3.088,0-5.59,2.502-5.59,5.588v31.395l-2.188,0.068v-23.52c0-3.086-2.502-5.588-5.588-5.588s-5.59,2.502-5.59,5.588v23.871
							c0,0-0.756,15.721-0.419,26.227s9.749,21.182,10.758,21.938c-0.421,0.926,0.085,20.008,0.085,20.008h39.758
							c0,0,0.336-13.619,0.461-16.141c5.293-2.666,13.584-15.51,14.668-26.436h0.125V45.035
							C222.586,41.623,219.82,38.857,216.408,38.857z"/>
						<path fill="#CD9284" d="M182.809,44.338l-25.091,1.135c1.892,0.945,20.741,1.953,25.091,1.828
							c4.35-0.127,20.477-2.277,24.461-3.531C202.414,43.896,182.809,44.338,182.809,44.338z"/>
						<path fill="#CD9284" d="M189.615,85.125c0,0,2.336-13.742,17.654-21.246c-17.4,4.225-22.949,15.385-25.344,21.246
							C184.951,85.125,189.615,85.125,189.615,85.125z"/>
					</g>
					<rect x="181.926" y="102.336" fill="#CD9284" width="3.342" height="10.551"/>
					<rect x="191.256" y="102.336" fill="#CD9284" width="3.594" height="10.551"/>
				</g>
				<circle fill="#5E6979" cx="205.944" cy="118.854" r="3.782"/>
				<rect x="165.346" y="127.084" fill="#5E6979" width="43.373" height="169.295"/>
				<polygon fill="#555C67" points="200.775,296.24 181.926,296.379 181.926,127.082 200.775,127.082 				"/>
			</g>
		</g>
	</g>
	<g>
		<g>
			<path fill="#D39181" d="M74.016,174.598c-2.25,0-4.073,1.824-4.073,4.074v12.348c-0.672-0.066-1.239-0.021-1.608,0.193v-11.004
				v-2.801v-19.518c0-2.035-1.65-3.686-3.686-3.686c-2.036,0-3.688,1.65-3.688,3.686v19.748l-1.193,0.039V152.65
				c0-2.035-1.651-3.686-3.686-3.686c-2.036,0-3.688,1.65-3.688,3.686v25.26l-1.275,0.039v-20.475c0-2.033-1.649-3.686-3.687-3.686
				c-2.035,0-3.687,1.652-3.687,3.686v20.709l-1.442,0.043v-15.512c0-2.035-1.651-3.686-3.687-3.686
				c-2.034,0-3.687,1.65-3.687,3.686v15.746c0,0-0.499,10.367-0.277,17.299c0.223,6.932,6.432,13.971,7.096,14.471
				c-0.275,0.609,0.057,13.197,0.057,13.197h26.225c0,0,0.223-8.984,0.305-10.646c3.492-1.762,8.961-10.232,9.676-17.439h0.08
				v-16.67C78.09,176.422,76.266,174.598,74.016,174.598z"/>
			<path fill="#BC877F" d="M51.853,178.209l-16.548,0.75c1.248,0.625,13.68,1.289,16.548,1.205c2.871-0.082,13.508-1.5,16.134-2.328
				C64.787,177.918,51.853,178.209,51.853,178.209z"/>
			<path fill="#BC877F" d="M56.344,205.115c0,0,1.539-9.064,11.643-14.014c-11.475,2.787-15.134,10.146-16.715,14.014
				C53.269,205.115,56.344,205.115,56.344,205.115z"/>
		</g>
		<rect x="36.537" y="224.252" fill="#A97D4F" width="35.124" height="72.127"/>
		<rect x="49.962" y="224.252" fill="#72573C" width="15.266" height="72.127"/>
		<path fill="#FFFFFF" d="M72.508,220.551c0-1.072-0.795-1.939-1.775-1.939H37.467c-0.981,0-1.775,0.867-1.775,1.939v3.068
			c0,1.074,0.794,1.939,1.775,1.939h33.266c0.98,0,1.775-0.865,1.775-1.939V220.551z"/>
		<circle fill="#72573C" cx="41.756" cy="222.156" r="2.094"/>
	</g>
	<g>
		<g>
			<g>
				<circle fill="#EDEDED" cx="112.522" cy="191.48" r="4.07"/>
				<circle fill="#FFFFFF" cx="112.478" cy="189.242" r="1.488"/>
				<path fill="#B2B2B2" d="M115.192,188.404c0.303,0.557,0.492,1.186,0.492,1.867c0,2.127-1.688,3.848-3.773,3.848
					c-1.537,0-2.854-0.936-3.442-2.283c0.149,2.162,1.897,3.875,4.06,3.875c2.256,0,4.086-1.865,4.086-4.17
					C116.614,190.283,116.056,189.168,115.192,188.404z"/>
			</g>
			<g>
				<path fill="#E49C87" d="M149.379,121.074c-2.639,0-4.777,2.141-4.777,4.775v14.48c-0.788-0.074-1.453-0.023-1.887,0.229v-12.904
					v-3.283v-22.887c0-2.385-1.936-4.322-4.324-4.322c-2.385,0-4.32,1.938-4.32,4.322v23.16l-1.4,0.043V95.342
					c0-2.387-1.936-4.322-4.321-4.322c-2.388,0-4.323,1.936-4.323,4.322v29.619l-1.496,0.047v-24.01
					c0-2.385-1.937-4.322-4.323-4.322s-4.322,1.938-4.322,4.322v24.281l-1.691,0.055v-18.191c0-2.387-1.936-4.322-4.322-4.322
					s-4.322,1.936-4.322,4.322v18.465c0,0-0.287,12.148-0.326,20.281c-0.066,14.32,8.24,20.416,9.021,21.002
					c-0.326,0.715,0.121,129.488,0.121,129.488h30.603c0,0-0.098-126.404,0-128.354c4.094-2.062,11.189-12.23,11.094-22.625h0.096
					V125.85C154.156,123.215,152.016,121.074,149.379,121.074z"/>
				<path fill="#CD9284" d="M123.393,125.312l-19.407,0.877c1.463,0.732,16.041,1.512,19.407,1.414
					c3.363-0.098,15.836-1.76,18.916-2.73C138.555,124.971,123.393,125.312,123.393,125.312z"/>
				<path fill="#CD9284" d="M128.656,156.859c0,0,1.807-10.631,13.652-16.432c-13.456,3.268-17.746,11.896-19.6,16.432
					C125.049,156.859,128.656,156.859,128.656,156.859z"/>
			</g>
			<path opacity="0.77" fill="#986D5D" d="M138.612,196.705c-2.375,0-4.306,1.801-4.558,4.107c-0.812-1.125-2.129-1.865-3.625-1.865
				c-2.475,0-4.479,2.004-4.479,4.479c0,0.072,0.017,0.139,0.021,0.211c-0.818-1.066-2.092-1.766-3.541-1.766
				c-2.475,0-4.48,2.006-4.48,4.48c0,0.086,0.021,0.166,0.026,0.252c-0.801-1.221-2.178-2.033-3.748-2.033
				c-0.708,0-1.367,0.178-1.963,0.471v8.018c0.596,0.295,1.255,0.471,1.963,0.471c2.475,0,4.48-2.004,4.48-4.479
				c0-0.088-0.021-0.168-0.025-0.254c0.801,1.225,2.176,2.035,3.747,2.035c2.475,0,4.48-2.006,4.48-4.48
				c0-0.072-0.018-0.139-0.021-0.209c0.818,1.066,2.094,1.764,3.541,1.764c2.291,0,4.157-1.723,4.427-3.943
				c0.835,1.178,2.2,1.955,3.756,1.955c1.905,0,3.542-1.158,4.241-2.811v-3.596C142.154,197.861,140.518,196.705,138.612,196.705z"
				/>
			<g>
				<circle fill="#EDEDED" cx="147.034" cy="187.678" r="4.524"/>
				<circle fill="#FFFFFF" cx="146.985" cy="185.186" r="1.656"/>
				<path fill="#B2B2B2" d="M150.002,184.254c0.34,0.619,0.549,1.32,0.549,2.08c0,2.363-1.877,4.279-4.196,4.279
					c-1.709,0-3.173-1.045-3.827-2.545c0.166,2.408,2.109,4.312,4.513,4.312c2.511,0,4.546-2.072,4.546-4.635
					C151.586,186.346,150.965,185.105,150.002,184.254z"/>
			</g>
			<g>
				<path fill="#EDEDED" d="M149.543,193.338c0,2.496-2.027,4.521-4.525,4.521c-2.5,0-4.525-2.025-4.525-4.521
					c0-2.502,2.025-4.527,4.525-4.527C147.516,188.811,149.543,190.836,149.543,193.338z"/>
				<circle fill="#FFFFFF" cx="144.967" cy="190.846" r="1.655"/>
				<path fill="#B2B2B2" d="M147.984,189.912c0.34,0.621,0.549,1.32,0.549,2.082c0,2.363-1.877,4.277-4.195,4.277
					c-1.709,0-3.174-1.043-3.828-2.543c0.166,2.406,2.109,4.311,4.514,4.311c2.51,0,4.545-2.074,4.545-4.635
					C149.568,192.004,148.947,190.764,147.984,189.912z"/>
			</g>
			<g>
				<circle fill="#EDEDED" cx="138.303" cy="197.213" r="4.525"/>
				<circle fill="#FFFFFF" cx="138.254" cy="194.723" r="1.654"/>
				<path fill="#B2B2B2" d="M141.271,193.789c0.339,0.617,0.55,1.32,0.55,2.08c0,2.363-1.877,4.279-4.197,4.279
					c-1.709,0-3.174-1.045-3.826-2.545c0.165,2.406,2.109,4.311,4.512,4.311c2.51,0,4.545-2.072,4.545-4.633
					C142.854,195.879,142.233,194.641,141.271,193.789z"/>
			</g>
			<g>
				<circle fill="#EDEDED" cx="130.359" cy="199.607" r="4.525"/>
				<circle fill="#FFFFFF" cx="130.311" cy="197.115" r="1.654"/>
				<path fill="#B2B2B2" d="M133.328,196.186c0.338,0.617,0.549,1.32,0.549,2.078c0,2.365-1.879,4.281-4.197,4.281
					c-1.709,0-3.174-1.047-3.828-2.545c0.168,2.406,2.111,4.311,4.514,4.311c2.51,0,4.545-2.072,4.545-4.635
					C134.91,198.275,134.289,197.037,133.328,196.186z"/>
			</g>
			<g>
				<circle fill="#EDEDED" cx="122.479" cy="202.564" r="4.525"/>
				<circle fill="#FFFFFF" cx="122.431" cy="200.074" r="1.655"/>
				<path fill="#B2B2B2" d="M125.447,199.143c0.338,0.621,0.549,1.32,0.549,2.078c0,2.365-1.877,4.279-4.196,4.279
					c-1.709,0-3.174-1.045-3.828-2.543c0.166,2.406,2.11,4.311,4.515,4.311c2.509,0,4.543-2.076,4.543-4.637
					C127.029,201.232,126.41,199.992,125.447,199.143z"/>
			</g>
			<g>
				<path fill="#EDEDED" d="M112.243,194.916c0,2.246-1.824,4.07-4.071,4.07s-4.069-1.824-4.069-4.07c0-2.244,1.822-4.07,4.069-4.07
					S112.243,192.672,112.243,194.916z"/>
				<path fill="#FFFFFF" d="M109.616,192.68c0,0.818-0.666,1.486-1.488,1.486s-1.488-0.668-1.488-1.486
					c0-0.824,0.666-1.49,1.488-1.49S109.616,191.855,109.616,192.68z"/>
				<path fill="#B2B2B2" d="M110.841,191.84c0.305,0.557,0.494,1.184,0.494,1.869c0,2.125-1.688,3.848-3.773,3.848
					c-1.537,0-2.854-0.938-3.443-2.285c0.15,2.164,1.898,3.875,4.06,3.875c2.257,0,4.087-1.865,4.087-4.168
					C112.265,193.719,111.706,192.604,110.841,191.84z"/>
			</g>
			<g>
				<circle fill="#EDEDED" cx="106.628" cy="201.514" r="4.525"/>
				<circle fill="#FFFFFF" cx="106.578" cy="199.023" r="1.655"/>
				<path fill="#B2B2B2" d="M109.596,198.09c0.337,0.619,0.548,1.318,0.548,2.08c0,2.363-1.877,4.279-4.195,4.279
					c-1.709,0-3.175-1.045-3.828-2.543c0.167,2.404,2.109,4.311,4.514,4.311c2.51,0,4.544-2.076,4.544-4.637
					C111.178,200.182,110.558,198.939,109.596,198.09z"/>
			</g>
			<g>
				<path fill="#EDEDED" d="M118.495,205.021c0,2.5-2.027,4.527-4.525,4.527c-2.5,0-4.525-2.027-4.525-4.527
					c0-2.496,2.025-4.523,4.525-4.523C116.468,200.498,118.495,202.525,118.495,205.021z"/>
				<circle fill="#FFFFFF" cx="113.919" cy="202.533" r="1.655"/>
				<path fill="#B2B2B2" d="M116.937,201.602c0.34,0.619,0.549,1.32,0.549,2.078c0,2.363-1.877,4.279-4.196,4.279
					c-1.71,0-3.173-1.045-3.827-2.541c0.166,2.402,2.109,4.309,4.514,4.309c2.51,0,4.545-2.076,4.545-4.637
					C118.521,203.691,117.899,202.449,116.937,201.602z"/>
			</g>
		</g>
		<rect x="120.991" y="172.396" fill="#CD9284" width="2.688" height="12.789"/>
		<rect x="128.725" y="172.396" fill="#CD9284" width="2.688" height="12.789"/>
	</g>
	<g>
		<g>
			<path fill="#D39181" d="M290.799,102.74c-3.412,0-6.18,2.768-6.18,6.176v18.721c-1.018-0.098-1.875-0.029-2.438,0.295v-16.688
				v-4.242v-29.59c0-3.086-2.502-5.59-5.59-5.59c-3.086,0-5.588,2.504-5.588,5.59v29.941l-1.809,0.059V69.469
				c0-3.086-2.502-5.59-5.59-5.59c-3.086,0-5.588,2.504-5.588,5.59v38.293l-1.936,0.062V76.783c0-3.088-2.502-5.59-5.588-5.59
				c-3.088,0-5.59,2.502-5.59,5.59v31.393l-2.188,0.07v-23.52c0-3.088-2.502-5.59-5.588-5.59c-3.088,0-5.59,2.502-5.59,5.59v23.871
				c0,0-0.756,15.719-0.42,26.225c0.338,10.51,13.533,27.404,14.541,28.16c-0.422,0.924-1.172,133.396-1.172,133.396h31.684
				c0,0,1.852-133.229,1.975-135.75c5.293-2.666,17.621-15.512,18.703-26.438h0.125v-25.275
				C296.975,105.508,294.209,102.74,290.799,102.74z"/>
			<path fill="#BC877E" d="M257.197,108.219l-25.09,1.135c1.891,0.945,20.74,1.955,25.09,1.826
				c4.35-0.125,20.477-2.275,24.461-3.529C276.803,107.777,257.197,108.219,257.197,108.219z"/>
			<path fill="#BC877E" d="M264.004,149.008c0,0,2.336-13.744,17.654-21.246c-17.4,4.225-22.947,15.383-25.344,21.246
				C259.34,149.008,264.004,149.008,264.004,149.008z"/>
		</g>
		<g>
			<path fill="#AF7B71" d="M277.883,176.514c-2.035,1.494-7.938,3.072-15.926,3.072c-9,0-15.086-1.971-16.309-3.607v2.537
				c3.32,2.035,9.838,3.088,16.309,3.088c6.088,0,12.42-1.01,15.891-2.812L277.883,176.514z"/>
		</g>
		<g>
			<path fill="#AF7B71" d="M277.934,173.805c-2.035,1.496-7.723,3.049-15.711,3.049c-8.998,0-15.084-1.971-16.309-3.607v2.537
				c3.32,2.033,9.838,3.088,16.309,3.088c6.088,0,12.205-0.936,15.676-2.736L277.934,173.805z"/>
		</g>
		<g>
			<path fill="#5B3C17" d="M277.914,170.012v2.379c0.334,0.279,0.512,0.549,0.518,0.781c0.02,0.5-0.873,1.643-4.316,2.766
				c-3.188,1.035-7.469,1.691-12.055,1.844c-0.666,0.021-1.32,0.031-1.965,0.031c-9.695,0-14.635-2.279-14.676-3.555
				c-0.006-0.137,0.064-0.324,0.229-0.543h-0.037v-2.58c-1.492,0.945-2.248,2.023-2.209,3.189c0.125,3.803,8.475,5.506,16.693,5.506
				c0.666,0,1.346-0.012,2.031-0.033c4.768-0.154,9.252-0.846,12.613-1.939c3.797-1.24,5.77-2.883,5.709-4.75
				C280.408,171.848,279.453,170.822,277.914,170.012z"/>
			<path fill="#5B3C17" d="M278.027,167.158l-0.041,2.602c0.543,0.365,0.438,0.424,0.445,0.725c0.02,0.496-0.873,1.641-4.316,2.762
				c-3.188,1.037-7.469,1.693-12.055,1.844c-0.666,0.023-1.32,0.033-1.965,0.033c-9.695,0-14.635-2.277-14.676-3.555
				c-0.008-0.166-0.061-0.156,0.191-0.434l-0.037-2.795c-1.594,0.971-2.213,2.088-2.172,3.295c0.125,3.801,8.475,5.506,16.693,5.506
				c0.666,0,1.346-0.012,2.031-0.033c4.768-0.158,9.252-0.846,12.613-1.941c3.797-1.238,5.77-2.879,5.709-4.748
				C280.404,169.074,279.756,167.996,278.027,167.158z"/>
		</g>
	</g>
</g>
</svg>
