<?xml version="1.0" encoding="utf-8"?>
<!-- Generator: Adobe Illustrator 19.2.1, SVG Export Plug-In . SVG Version: 6.00 Build 0)  -->
<svg version="1.1" id="Capa_1" xmlns="http://www.w3.org/2000/svg" xmlns:xlink="http://www.w3.org/1999/xlink" x="0px" y="0px"
	 viewBox="0 0 312.8 297.8" style="enable-background:new 0 0 312.8 297.8;" xml:space="preserve">
<style type="text/css">
	.st0{fill:#DD6277;}
	.st1{fill:#E8A793;}
	.st2{fill:#CA9082;}
	.st3{fill:#F4E3EA;}
	.st4{fill:#777776;}
	.st5{fill:#FFFFFF;}
	.st6{fill:#E49C87;}
	.st7{fill:#CD9284;}
	.st8{fill:#5E6979;}
	.st9{fill:#555C67;}
	.st10{fill:#CCC7C6;}
	.st11{fill:#CCC7C5;}
	.st12{fill:#A9A8A8;}
	.st13{fill:#986D5D;}
	.st14{fill:none;stroke:#CDCDCC;stroke-width:0.5;stroke-miterlimit:10;}
	.st15{fill:none;stroke:#BDBCBC;stroke-width:0.5;stroke-miterlimit:10;}
	.st16{fill:none;stroke:#ACACAC;stroke-width:0.5;stroke-miterlimit:10;}
	.st17{fill:#E59C88;}
	.st18{fill:#D39181;}
	.st19{fill:#BC877E;}
	.st20{fill:#433A3D;}
	.st21{fill:#AF7B71;}
</style>
<g>
	<g>
		<path class="st0" d="M243.9,88.9c0,4.3-1.6,7.8-3.5,7.8c-1.9,0-3.5-3.5-3.5-7.8s1.6-7.8,3.5-7.8C242.3,81.1,243.9,84.6,243.9,88.9
			z"/>
		<path class="st0" d="M256.9,78.3c0,4.3-1.6,7.8-3.5,7.8c-1.9,0-3.5-3.5-3.5-7.8s1.6-7.8,3.5-7.8C255.4,70.4,256.9,73.9,256.9,78.3
			z"/>
		<ellipse class="st0" cx="267.5" cy="70.4" rx="3.5" ry="7.8"/>
		<ellipse class="st0" cx="279.7" cy="80.7" rx="3.5" ry="7.8"/>
		<path class="st0" d="M307.6,132c-3.7,2.2-7.5,2.7-8.5,1.1c-1-1.6,1.2-4.8,4.9-7c3.7-2.2,7.5-2.7,8.5-1.1
			C313.5,126.6,311.3,129.7,307.6,132z"/>
		<rect x="244.3" y="158.3" class="st1" width="30.1" height="13.7"/>
		<path class="st2" d="M274.4,158.7c0,1.1-0.9,1.9-2,1.9h-26.2c-1.1,0-2-0.9-2-1.9V156c0-1.1,0.9-2,2-2h26.2c1.1,0,2,0.9,2,2V158.7z
			"/>
		<g>
			<path class="st1" d="M273.7,112.8c0.1-2.2,2.2-33.6,2.2-33.6s0.3-4,3.8-3.5c3.5,0.5,3.7,1.7,3.9,4.2c0.2,2.5,1.1,48.7,1.1,48.7
				c3-1.4,10.4-6.9,17.7-6.8c7.2,0.1,8.5,2.8,8.3,5.5c-0.2,2.8-1,3.3-2.4,4.2c-1.5,0.9-17.6,10.3-20.5,13.7
				c-2.9,3.4-10,10.6-13.4,10.8c-3.4,0.2-30.1,0-30.1,0s-4.8-3.6-5.9-6.9c-1.1-3.3-0.7-4.6-0.9-7.2c-0.2-2.6-0.5-28.5-0.5-28.5
				s-0.9-22.4-0.6-23.8c0.3-1.5,0.9-5,4.1-5.1c3.3-0.1,4,1.8,4.2,4.4c0.2,2.6,1.6,24.1,1.6,24.1l2.2-0.2c0,0,0.8-31.3,1.1-34.8
				c0.3-3.4,1.6-5.1,3.8-5c2.2,0.1,4.2-0.1,4.2,6.3c0,6.4,0.8,33.5,0.8,33.5l3.7,0.1c0,0,1-41.3,1.3-43.5c0.3-2.2,1.9-4.2,4.1-4
				c2.2,0.2,3.7,1,3.8,5c0.2,4,1.5,42.5,1.5,42.5L273.7,112.8z"/>
			<path class="st2" d="M254.2,112.6h24.4c-2.8,1.2-17.2,3.4-23.4,3.3c-6.2-0.1-15.2-3.3-15.2-3.3
				C242.9,112.8,254.2,112.6,254.2,112.6z"/>
			<path class="st2" d="M280.8,128.5c-3.2,0.7-11.2,2.1-18.1,13.1c-3.7-0.2-6.3,0-6.3,0c2.1-2.6,10.4-14.3,24.4-13.4"/>
		</g>
		<rect x="240" y="172" class="st3" width="38.6" height="125.8"/>
	</g>
	<g>
		<rect x="166.6" y="125.1" class="st4" width="43.4" height="4.5"/>
		<g>
			<path class="st5" d="M211.7,123c0,1.1-0.9,2-2,2h-42.6c-1.1,0-2-0.9-2-2v-8c0-1.1,0.9-2,2-2h42.6c1.1,0,2,0.9,2,2V123z"/>
			<g>
				<g>
					<g>
						<path class="st6" d="M217.6,39.1c-3.4,0-6.2,2.8-6.2,6.2V64c-1-0.1-1.9,0-2.4,0.3V47.6v-4.2V13.7c0-3.1-2.5-5.6-5.6-5.6
							s-5.6,2.5-5.6,5.6v29.9l-1.8,0.1V5.8c0-3.1-2.5-5.6-5.6-5.6s-5.6,2.5-5.6,5.6v38.3l-1.9,0.1v-31c0-3.1-2.5-5.6-5.6-5.6
							c-3.1,0-5.6,2.5-5.6,5.6v31.4l-2.2,0.1V21c0-3.1-2.5-5.6-5.6-5.6c-3.1,0-5.6,2.5-5.6,5.6v23.9c0,0-0.8,15.7-0.4,26.2
							c0.3,10.5,9.7,21.2,10.8,21.9c-0.4,0.9,0.1,20,0.1,20h39.8c0,0,0.3-13.6,0.5-16.1c5.3-2.7,13.6-15.5,14.7-26.4h0.1V45.2
							C223.8,41.8,221,39.1,217.6,39.1z"/>
						<path class="st7" d="M184,44.5l-25.1,1.1c1.9,0.9,20.7,2,25.1,1.8c4.4-0.1,20.5-2.3,24.5-3.5C203.6,44.1,184,44.5,184,44.5z"
							/>
						<path class="st7" d="M190.8,85.3c0,0,2.3-13.7,17.7-21.2c-17.4,4.2-22.9,15.4-25.3,21.2C186.2,85.3,190.8,85.3,190.8,85.3z"/>
					</g>
					<rect x="183.1" y="102.5" class="st7" width="3.3" height="10.6"/>
					<rect x="192.5" y="102.5" class="st7" width="3.6" height="10.6"/>
				</g>
				<circle class="st8" cx="207.1" cy="119.1" r="3.8"/>
				<rect x="166.6" y="127.3" class="st8" width="43.4" height="168.5"/>
				<rect x="183.1" y="127.3" class="st9" width="18.8" height="168.5"/>
			</g>
		</g>
		<g>
			<path class="st5" d="M211.7,123c0,1.1-0.9,2-2,2h-42.6c-1.1,0-2-0.9-2-2v-8c0-1.1,0.9-2,2-2h42.6c1.1,0,2,0.9,2,2V123z"/>
			<g>
				<g>
					<g>
						<path class="st6" d="M217.6,39.1c-3.4,0-6.2,2.8-6.2,6.2V64c-1-0.1-1.9,0-2.4,0.3V47.6v-4.2V13.7c0-3.1-2.5-5.6-5.6-5.6
							s-5.6,2.5-5.6,5.6v29.9l-1.8,0.1V5.8c0-3.1-2.5-5.6-5.6-5.6s-5.6,2.5-5.6,5.6v38.3l-1.9,0.1v-31c0-3.1-2.5-5.6-5.6-5.6
							c-3.1,0-5.6,2.5-5.6,5.6v31.4l-2.2,0.1V21c0-3.1-2.5-5.6-5.6-5.6c-3.1,0-5.6,2.5-5.6,5.6v23.9c0,0-0.8,15.7-0.4,26.2
							c0.3,10.5,9.7,21.2,10.8,21.9c-0.4,0.9,0.1,20,0.1,20h39.8c0,0,0.3-13.6,0.5-16.1c5.3-2.7,13.6-15.5,14.7-26.4h0.1V45.2
							C223.8,41.8,221,39.1,217.6,39.1z"/>
						<path class="st7" d="M184,44.5l-25.1,1.1c1.9,0.9,20.7,2,25.1,1.8c4.4-0.1,20.5-2.3,24.5-3.5C203.6,44.1,184,44.5,184,44.5z"
							/>
						<path class="st7" d="M190.8,85.3c0,0,2.3-13.7,17.7-21.2c-17.4,4.2-22.9,15.4-25.3,21.2C186.2,85.3,190.8,85.3,190.8,85.3z"/>
					</g>
					<rect x="183.1" y="102.5" class="st7" width="3.3" height="10.6"/>
					<rect x="192.5" y="102.5" class="st7" width="3.6" height="10.6"/>
				</g>
				<circle class="st10" cx="207.1" cy="119.1" r="3.8"/>
				<rect x="166.6" y="127.3" class="st11" width="43.4" height="170.5"/>
				<rect x="183.1" y="127.3" class="st12" width="18.8" height="170.5"/>
			</g>
		</g>
	</g>
	<g>
		<path class="st6" d="M151.1,121.3c-2.6,0-4.8,2.1-4.8,4.8v14.5c-0.8-0.1-1.5,0-1.9,0.2v-12.9v-3.3v-22.9c0-2.4-1.9-4.3-4.3-4.3
			s-4.3,1.9-4.3,4.3v23.2l-1.4,0V95.5c0-2.4-1.9-4.3-4.3-4.3s-4.3,1.9-4.3,4.3v29.6l-1.5,0v-24c0-2.4-1.9-4.3-4.3-4.3
			s-4.3,1.9-4.3,4.3v24.3l-1.7,0.1v-18.2c0-2.4-1.9-4.3-4.3-4.3c-2.4,0-4.3,1.9-4.3,4.3v18.5c0,0-0.3,12.1-0.3,20.3
			c-0.1,14.3,8.2,20.4,9,21c-0.3,0.7,0,130.7,0,130.7h30.8c0,0-0.2-127.6-0.1-129.6c4.1-2.1,11.2-12.2,11.1-22.6h0.1v-19.6
			C155.8,123.4,153.7,121.3,151.1,121.3z"/>
		<path class="st7" d="M125.1,125.5l-19.4,0.9c1.5,0.7,16,1.5,19.4,1.4c3.4-0.1,15.8-1.8,18.9-2.7
			C140.2,125.2,125.1,125.5,125.1,125.5z"/>
		<path class="st7" d="M130.3,157.1c0,0,1.8-10.6,13.7-16.4c-13.5,3.3-17.7,11.9-19.6,16.4C126.7,157.1,130.3,157.1,130.3,157.1z"/>
	</g>
	<g>
		<path class="st13" d="M144.6,203.5c-1.6,0.9-3.2,1.6-5.1,2.2c1.8-0.8,3.5-1.7,5.1-2.8v-1.2c-0.5,0.3-1,0.7-1.5,1
			c0.5-0.4,1-0.7,1.5-1.1v-1.3c-2.9,2.5-6.6,4.7-10.9,6.3c-0.4,0.1-0.7,0.2-1.1,0.4c-0.3,0.1-0.5,0.1-0.8,0.2
			c-0.5,0.1-1,0.1-1.5,0.2c-0.3,0-0.6,0-0.9,0.1c-6,0.2-11.5-1-15.7-3v1.1c2.3,1.1,4.9,1.9,7.9,2.4c-3-0.2-5.6-0.8-7.9-1.7v1.1
			c2.3,0.9,4.9,1.5,7.9,1.7c-0.1,0-0.1,0-0.2,0c-2.9,0-5.5-0.4-7.7-1.2v1.1c2.2,0.7,4.8,1.1,7.7,1.1c3.3,0,6.8-0.6,10.3-1.6
			c4.8-0.4,9.2-1.7,12.9-3.6L144.6,203.5L144.6,203.5z"/>
		<path class="st13" d="M125.4,180.8c0.3-0.1,0.5-0.1,0.8-0.2c0.5-0.1,1-0.1,1.5-0.2c0.3,0,0.6,0,0.9-0.1c0.4,0,0.8,0,1.2,0
			c5.7,0,10.8,1.2,14.8,3.2v-1.1c-2.4-1.2-5.1-2.1-8.2-2.6c3.1,0.2,5.8,0.9,8.2,1.9v-1.1c-2.4-1-5.1-1.6-8.2-1.8c0.1,0,0.1,0,0.2,0
			c3.1,0,5.8,0.5,8,1.4v-1.1c-2.3-0.8-5-1.3-8-1.3c-3.3,0-6.8,0.6-10.3,1.6c-4.7,0.4-9,1.6-12.6,3.5v1.1c1.5-0.8,3-1.5,4.7-2
			c-1.7,0.7-3.3,1.6-4.7,2.5v1.2c0.4-0.3,0.7-0.5,1.1-0.8c-0.4,0.3-0.8,0.6-1.1,0.9v1.3c2.8-2.4,6.4-4.5,10.5-6
			C124.7,181,125.1,180.9,125.4,180.8z"/>
	</g>
	<g>
		<path class="st14" d="M152.2,186.9c1.6,7.6-7.5,16-20.3,18.7c-12.8,2.7-24.5-1.2-26.1-8.8c-1.6-7.6,7.5-16,20.3-18.7
			C138.9,175.3,150.6,179.3,152.2,186.9z"/>
		
			<ellipse transform="matrix(0.9378 -0.3471 0.3471 0.9378 -58.5564 56.7147)" class="st15" cx="129" cy="191.8" rx="23.7" ry="14.1"/>
		<path class="st16" d="M152.7,191.1c0.2,7.8-10.2,14.4-23.3,14.8c-13.1,0.4-23.9-5.6-24.1-13.3c-0.2-7.8,10.2-14.4,23.3-14.8
			C141.7,177.3,152.5,183.3,152.7,191.1z"/>
	</g>
	<rect x="113.8" y="175.3" class="st17" width="30.8" height="23.4"/>
	<rect x="122.7" y="172.6" class="st7" width="2.7" height="12.8"/>
	<rect x="130.4" y="172.6" class="st7" width="2.7" height="12.8"/>
	<g>
		<g>
			<path class="st18" d="M59.4,78.1c-3.4,0-6.1,2.8-6.1,6.1v18.6c-1-0.1-1.9,0-2.4,0.3V86.6v-4.2V53c0-3.1-2.5-5.6-5.6-5.6
				c-3.1,0-5.6,2.5-5.6,5.6v29.8L38,82.8V45.1c0-3.1-2.5-5.6-5.6-5.6c-3.1,0-5.6,2.5-5.6,5.6v38.1l-1.9,0.1V52.3
				c0-3.1-2.5-5.6-5.6-5.6s-5.6,2.5-5.6,5.6v31.2l-2.2,0.1V60.2c0-3.1-2.5-5.6-5.6-5.6c-3.1,0-5.6,2.5-5.6,5.6V84
				c0,0-0.8,15.6-0.4,26.1c0.3,10.5,13.5,27.3,14.5,28c-0.4,0.9,0.8,132.7,0.8,132.7h29.6c0,0,1.8-132.5,2-135
				c5.3-2.7,17.5-15.4,18.6-26.3h0.1V84.3C65.6,80.9,62.8,78.1,59.4,78.1z"/>
			<path class="st19" d="M26,83.6l-25,1.1c1.9,0.9,20.6,1.9,25,1.8c4.3-0.1,20.4-2.3,24.3-3.5C45.5,83.2,26,83.6,26,83.6z"/>
			<path class="st19" d="M32.8,124.2c0,0,2.3-13.7,17.6-21.1c-17.3,4.2-22.8,15.3-25.2,21.1C28.2,124.2,32.8,124.2,32.8,124.2z"/>
		</g>
		<rect x="11.7" y="145.7" class="st5" width="38.6" height="152.1"/>
	</g>
	<g>
		<g>
			<path class="st17" d="M79.8,179.5c-2.7,0-4.9,2.2-4.9,4.9v14.9c-0.8-0.1-1.5,0-1.9,0.2v-13.3v-3.4v-23.5c0-2.5-2-4.4-4.4-4.4
				c-2.5,0-4.4,2-4.4,4.4v23.8l-1.4,0v-30.2c0-2.5-2-4.4-4.4-4.4c-2.5,0-4.4,2-4.4,4.4v30.4l-1.5,0.1v-24.7c0-2.5-2-4.4-4.4-4.4
				c-2.5,0-4.4,2-4.4,4.4v25l-1.7,0.1v-18.7c0-2.5-2-4.4-4.4-4.4s-4.4,2-4.4,4.4v19c0,0-0.6,12.5-0.3,20.9
				c0.3,8.4,10.8,21.8,11.6,22.4c-0.3,0.7,0.4,70.2,0.4,70.2l24,0.1c0,0,1.3-70.2,1.4-72.2c4.2-2.1,14-12.3,14.9-21h0.1v-20.1
				C84.8,181.7,82.6,179.5,79.8,179.5z"/>
			<path class="st7" d="M53.1,183.9l-19.9,0.9c1.5,0.8,16.5,1.6,19.9,1.5c3.5-0.1,16.3-1.8,19.4-2.8
				C68.7,183.5,53.1,183.9,53.1,183.9z"/>
			<path class="st7" d="M58.5,216.3c0,0,1.9-10.9,14-16.9c-13.8,3.4-18.2,12.2-20.1,16.9C54.8,216.3,58.5,216.3,58.5,216.3z"/>
		</g>
		<rect x="41.6" y="231" width="30" height="12"/>
		<rect x="41.6" y="230" class="st20" width="30" height="12"/>
		<rect x="43.9" y="243" class="st21" width="25.6" height="1.8"/>
	</g>
</g>
</svg>
