<?xml version="1.0" encoding="utf-8"?>
<!-- Generator: Adobe Illustrator 15.0.0, SVG Export Plug-In . SVG Version: 6.00 Build 0)  -->
<!DOCTYPE svg PUBLIC "-//W3C//DTD SVG 1.1//EN" "http://www.w3.org/Graphics/SVG/1.1/DTD/svg11.dtd">
<svg version="1.1" id="Capa_1" xmlns="http://www.w3.org/2000/svg" xmlns:xlink="http://www.w3.org/1999/xlink" x="0px" y="0px"
	 width="26.031px" height="26.221px" viewBox="0 0 26.031 26.221" enable-background="new 0 0 26.031 26.221" xml:space="preserve">
<g>
	<g>
		<path fill-rule="evenodd" clip-rule="evenodd" fill="#FFFFFF" d="M22.545,0c-0.33,0.426-0.795,0.717-1.089,1.176
			c1.137,1.145,2.233,2.328,3.442,3.398c0.389-0.379,0.816-0.723,1.133-1.176C24.812,2.322,23.752,1.088,22.545,0z M23.504,5.969
			c0.074-0.072,0.573-0.404,0.566-0.566c-0.006-0.146-0.686-0.641-0.871-0.828c-0.86-0.859-1.965-2.027-2.614-2.613
			c-0.331,0.426-0.796,0.717-1.089,1.178c1.136,1.143,2.232,2.326,3.441,3.398C23.155,6.383,23.269,6.205,23.504,5.969z
			 M9.387,13.16c-0.431,0.43-1.064,0.934-1.264,1.307c-0.177,0.332-0.268,0.822-0.393,1.221c-0.411,1.311-0.742,2.492-1.132,3.746
			c1.307-0.389,2.489-0.746,3.704-1.133c0.415-0.133,0.917-0.207,1.263-0.393c0.39-0.209,0.898-0.855,1.308-1.264
			c3.062-3.062,6.156-6.148,9.062-9.15c-1.136-1.143-2.232-2.326-3.441-3.398C15.511,7.062,12.404,10.143,9.387,13.16z"/>
		<path fill-rule="evenodd" clip-rule="evenodd" fill="#E62963" d="M26.031,3.398c-0.316,0.453-0.744,0.797-1.133,1.176
			c-1.209-1.07-2.306-2.254-3.442-3.398C21.75,0.717,22.215,0.426,22.545,0C23.752,1.088,24.812,2.322,26.031,3.398z"/>
		<path fill-rule="evenodd" clip-rule="evenodd" fill="#E62963" d="M22.938,6.537c-1.209-1.072-2.306-2.256-3.441-3.398
			c0.293-0.461,0.758-0.752,1.089-1.178c0.649,0.586,1.754,1.754,2.614,2.613c0.186,0.188,0.865,0.682,0.871,0.828
			c0.007,0.162-0.492,0.494-0.566,0.566C23.269,6.205,23.155,6.383,22.938,6.537z"/>
		<path fill-rule="evenodd" clip-rule="evenodd" fill="#E62963" d="M18.493,4.096c1.209,1.072,2.306,2.256,3.441,3.398
			c-2.905,3.002-6,6.088-9.062,9.15c-0.409,0.408-0.918,1.055-1.308,1.264c-0.346,0.186-0.848,0.26-1.263,0.393
			c-1.215,0.387-2.397,0.744-3.704,1.133c0.39-1.254,0.721-2.436,1.132-3.746c0.125-0.398,0.216-0.889,0.393-1.221
			c0.199-0.373,0.833-0.877,1.264-1.307C12.404,10.143,15.511,7.062,18.493,4.096z M18.756,5.84
			c-2.944,2.924-5.969,5.768-8.847,8.756c0.191,0.158,0.336,0.363,0.523,0.523c3.028-2.809,5.87-5.807,8.889-8.627
			C19.214,6.193,18.959,6.043,18.756,5.84z"/>
		<path fill-rule="evenodd" clip-rule="evenodd" fill="#FFFFFF" d="M19.321,6.492c-3.019,2.82-5.86,5.818-8.889,8.627
			c-0.188-0.16-0.332-0.365-0.523-0.523c2.878-2.988,5.902-5.832,8.847-8.756C18.959,6.043,19.214,6.193,19.321,6.492z"/>
	</g>
	<path fill-rule="evenodd" clip-rule="evenodd" fill="none" stroke="#E62963" stroke-miterlimit="10" d="M14.935,4.574H2.5
		c-1.104,0-2,0.896-2,2v17.227c0,1.104,0.896,2,2,2h16.956c1.104,0,2-0.896,2-2V11.305"/>
</g>
</svg>
