<?xml version="1.0" encoding="utf-8"?>
<!-- Generator: Adobe Illustrator 15.0.0, SVG Export Plug-In . SVG Version: 6.00 Build 0)  -->
<!DOCTYPE svg PUBLIC "-//W3C//DTD SVG 1.1//EN" "http://www.w3.org/Graphics/SVG/1.1/DTD/svg11.dtd">
<svg version="1.1" id="Capa_1" xmlns="http://www.w3.org/2000/svg" xmlns:xlink="http://www.w3.org/1999/xlink" x="0px" y="0px"
	 width="104.75px" height="121.932px" viewBox="0 0 104.75 121.932" enable-background="new 0 0 104.75 121.932"
	 xml:space="preserve">
<g>
	<path fill="#FFFFFF" stroke="#E72B65" stroke-width="0.5" stroke-miterlimit="10" d="M104.447,52.363c0-28.719-23.281-52-52-52
		s-52,23.281-52,52c0,22.748,14.613,42.071,34.959,49.128c-0.156,0.936-0.257,1.891-0.257,2.872c0,9.554,7.744,17.298,17.298,17.298
		s17.299-7.745,17.299-17.298c0-0.98-0.101-1.936-0.258-2.872C89.834,94.435,104.447,75.111,104.447,52.363z"/>
	
		<text transform="matrix(1 0 0 1 47.1504 110.7822)" stroke="#E72C65" stroke-miterlimit="10" font-family="'Lato-Light'" font-size="20.4121">+</text>
	<path fill="#FFFFFF" stroke="#E72C65" stroke-width="2" stroke-miterlimit="10" d="M77.547,39.826H67.203v-5.953
		c0-1.811-1.469-3.279-3.277-3.279H42.988c-1.812,0-3.281,1.469-3.281,3.279v5.953H27.348c-1.813,0-3.279,1.426-3.279,3.186v27.936
		c0,1.76,1.466,3.186,3.279,3.186h50.199c1.809,0,3.279-1.426,3.279-3.186V43.012C80.826,41.252,79.355,39.826,77.547,39.826z"/>
	<circle fill="none" stroke="#E72C65" stroke-width="2" stroke-miterlimit="10" cx="52.105" cy="56.59" r="10.998"/>
	<path fill="#E72C65" d="M72.979,48.977c0,1.271-1.028,2.301-2.3,2.301c-1.274,0-2.3-1.029-2.3-2.301c0-1.273,1.025-2.303,2.3-2.303
		C71.95,46.674,72.979,47.703,72.979,48.977z"/>
</g>
</svg>
