<?xml version="1.0" encoding="utf-8"?>
<!-- Generator: Adobe Illustrator 15.0.0, SVG Export Plug-In . SVG Version: 6.00 Build 0)  -->
<!DOCTYPE svg PUBLIC "-//W3C//DTD SVG 1.1//EN" "http://www.w3.org/Graphics/SVG/1.1/DTD/svg11.dtd">
<svg version="1.1" id="Capa_1" xmlns="http://www.w3.org/2000/svg" xmlns:xlink="http://www.w3.org/1999/xlink" x="0px" y="0px"
	 width="32.396px" height="25.619px" viewBox="0 0 32.396 25.619" enable-background="new 0 0 32.396 25.619" xml:space="preserve">
<g>
	<path fill-rule="evenodd" clip-rule="evenodd" fill="none" stroke="#E62963" stroke-miterlimit="10" d="M0.46,10.544
		c0-0.539,0-1.08,0-1.621C2.032-1.235,20.882-2.104,24.911,6.804c0.307,0.678,0.562,1.523,0.623,2.369
		c0.52,7.18-8.275,10.693-15.717,9.355c-0.721,0.756-2.021,1.275-3.244,1.748c-1.129,0.434-2.654,1.244-3.742,0.498
		c0.098-1.49,1.998-2.236,2.369-3.867C2.905,15.503,1.063,13.644,0.46,10.544z"/>
	<path fill-rule="evenodd" clip-rule="evenodd" fill="#E62963" d="M32.396,13.54c0,0.539,0,1.08,0,1.621
		c-0.537,3.203-2.684,4.801-4.74,6.486c0.49,1.521,2.396,2.24,2.371,3.867c-1.287,0.305-2.545-0.105-3.867-0.623
		c-1.139-0.445-2.373-1.613-3.369-1.746c-0.533-0.072-1.201,0.217-1.746,0.248c-3.645,0.215-7.189-0.568-9.232-2.244
		c9.098,0.008,17.225-4.172,15.719-13.973C29.995,8.454,31.778,10.415,32.396,13.54z"/>
</g>
</svg>
