<?xml version="1.0" encoding="utf-8"?>
<!-- Generator: Adobe Illustrator 15.0.0, SVG Export Plug-In . SVG Version: 6.00 Build 0)  -->
<!DOCTYPE svg PUBLIC "-//W3C//DTD SVG 1.1//EN" "http://www.w3.org/Graphics/SVG/1.1/DTD/svg11.dtd">
<svg version="1.1" id="Capa_1" xmlns="http://www.w3.org/2000/svg" xmlns:xlink="http://www.w3.org/1999/xlink" x="0px" y="0px"
	 width="21.664px" height="23.326px" viewBox="0 0 21.664 23.326" enable-background="new 0 0 21.664 23.326" xml:space="preserve">
<g>
	<path fill="#4D4D4D" d="M20.478,17.182c-0.354-0.398-0.724-0.918-1.104-1.555c-0.383-0.639-0.705-1.326-0.971-2.062
		c-0.264-0.738-0.48-1.633-0.65-2.682c-0.17-1.051-0.254-2.18-0.254-3.385c0-1.32-0.508-2.545-1.524-3.678
		C14.959,2.688,13.627,2,11.977,1.756c0.067-0.164,0.103-0.334,0.103-0.508c0-0.346-0.12-0.641-0.362-0.885
		C11.473,0.121,11.177,0,10.829,0c-0.345,0-0.64,0.121-0.885,0.363C9.703,0.607,9.582,0.902,9.582,1.248
		c0,0.174,0.035,0.344,0.104,0.508C8.037,2,6.705,2.688,5.689,3.82S4.166,6.178,4.166,7.498c0,1.205-0.084,2.334-0.255,3.385
		c-0.169,1.049-0.386,1.943-0.65,2.682c-0.266,0.736-0.587,1.424-0.97,2.062c-0.38,0.637-0.75,1.156-1.107,1.555
		c-0.354,0.4-0.75,0.781-1.184,1.146c0,0.451,0.166,0.842,0.495,1.172c0.329,0.328,0.72,0.494,1.171,0.494h5.12h0.712h6.668h1.621
		h4.211c0.451,0,0.842-0.166,1.17-0.494c0.33-0.33,0.496-0.721,0.496-1.172C21.229,17.963,20.836,17.582,20.478,17.182z"/>
	<path fill="#4D4D4D" d="M7.74,21.266c0.162,0.395,0.408,0.758,0.733,1.084c0.65,0.652,1.438,0.977,2.355,0.977
		c0.923,0,1.708-0.324,2.36-0.977c0.326-0.326,0.571-0.689,0.734-1.084H7.74z"/>
</g>
</svg>
