<?xml version="1.0" encoding="utf-8"?>
<!-- Generator: Adobe Illustrator 15.0.0, SVG Export Plug-In . SVG Version: 6.00 Build 0)  -->
<!DOCTYPE svg PUBLIC "-//W3C//DTD SVG 1.1//EN" "http://www.w3.org/Graphics/SVG/1.1/DTD/svg11.dtd">
<svg version="1.1" id="Capa_1" xmlns="http://www.w3.org/2000/svg" xmlns:xlink="http://www.w3.org/1999/xlink" x="0px" y="0px"
	 width="20.981px" height="23.326px" viewBox="0 0 20.981 23.326" enable-background="new 0 0 20.981 23.326" xml:space="preserve">
<g>
	<path fill-rule="evenodd" clip-rule="evenodd" fill="#717070" d="M9.328,0.115c-0.803,0.421-1.57,1.119-2.365,1.689
		c-1.979,1.418-3.895,2.87-5.912,4.324C0.699,6.381-0.006,6.689,0,7.172c0.004,0.432,0.713,0.829,1.051,1.092
		c2.572,2.001,4.848,3.71,7.357,5.665c0.318,0.249,0.84,0.951,1.314,0.747c0.416-0.18,0.285-0.982,0.264-1.591
		c-0.033-0.938-0.012-2.028,0.043-2.784c2.564,0.592,4.49,1.691,6.043,3.628c1.461,1.82,2.605,4.302,2.717,7.456
		c0.02,0.579-0.203,1.882,0.395,1.939c0.635,0.06,1.225-2.179,1.357-2.684c0.986-3.744,0.188-7.831-1.139-10.339
		c-1.916-3.622-4.811-5.787-9.416-6.261C9.883,3.034,10.369-0.432,9.328,0.115z"/>
	<path fill-rule="evenodd" clip-rule="evenodd" fill="#717070" d="M9.986,4.041c4.605,0.474,7.5,2.64,9.416,6.261
		c1.326,2.509,2.125,6.596,1.139,10.339c-0.133,0.505-0.723,2.744-1.357,2.684c-0.598-0.058-0.375-1.361-0.395-1.939
		c-0.111-3.154-1.256-5.636-2.717-7.456c-1.553-1.937-3.479-3.036-6.043-3.628c-0.055,0.756-0.076,1.846-0.043,2.784
		c0.021,0.609,0.152,1.412-0.264,1.591c-0.475,0.204-0.996-0.499-1.314-0.747c-2.51-1.955-4.785-3.664-7.357-5.665
		C0.713,8.001,0.004,7.604,0,7.172c-0.006-0.483,0.699-0.792,1.051-1.044c2.018-1.454,3.934-2.906,5.912-4.324
		c0.795-0.57,1.562-1.268,2.365-1.689C10.369-0.432,9.883,3.034,9.986,4.041z"/>
</g>
</svg>
